<svg width="357" height="265" viewBox="0 0 357 265" fill="none" xmlns="http://www.w3.org/2000/svg">
<path d="M103.544 43.2183C103.544 43.2183 143.861 73.814 205.155 16.6056C259.589 -34.1997 304.035 45.9597 304.346 84.3467C304.749 134.073 249.912 173.861 276.524 206.522C303.137 239.183 223.748 293.117 180.962 246.441C127.737 188.377 113.317 235.554 82.9794 235.554C61.2054 235.554 16.5015 181.451 46.6896 141.2C72.0925 107.33 58.2382 96.0892 51.5291 84.3467C41.851 67.4115 64.8346 21.4445 103.544 43.2183Z" fill="#E8CDED"/>
<path d="M265.409 110.83C267.576 111.635 269.944 111.689 272.198 111.171C281.638 109.005 314.099 103.267 308.458 128.421C307.23 133.412 288.218 161.361 315.293 171.563C317.276 172.32 319.375 172.734 321.498 172.785C329.833 172.957 346.352 170.989 353.266 163.951C361.618 155.45 352.494 159.481 352.494 159.481C352.494 159.481 320.743 173.337 309.528 158.637C308.279 157.002 307.485 154.626 307.257 152.581C306.863 149.035 308.437 144.35 310.505 140.271C313.304 134.75 326.743 109.917 297.566 102.683C290.844 101.082 281.082 99.6446 268.494 104.944C261.152 108.035 262.778 109.852 265.409 110.83Z" fill="url(#paint0_linear_1620_988)"/>
<path d="M271.905 101.559L263.454 104.722C260.537 105.814 259.057 109.064 260.149 111.981L260.568 113.1C261.66 116.018 264.91 117.498 267.827 116.406L276.278 113.243C279.195 112.151 280.675 108.901 279.583 105.984L279.164 104.864C278.072 101.947 274.822 100.467 271.905 101.559Z" fill="#223F61"/>
<path d="M220.031 110.711L192.161 121.142C190.702 121.688 189.962 123.313 190.508 124.772L190.618 125.065C191.164 126.524 192.789 127.264 194.247 126.718L222.118 116.287C223.577 115.741 224.317 114.116 223.771 112.657L223.661 112.364C223.115 110.905 221.49 110.165 220.031 110.711Z" fill="white"/>
<path d="M227.809 131.495L199.938 141.926C198.479 142.472 197.739 144.097 198.285 145.555L198.395 145.848C198.941 147.307 200.566 148.047 202.025 147.501L229.896 137.07C231.354 136.524 232.094 134.899 231.548 133.441L231.438 133.147C230.893 131.689 229.268 130.949 227.809 131.495Z" fill="white"/>
<path d="M253.543 96.5279L230.954 104.982C228.037 106.074 226.557 109.324 227.649 112.241L235.361 132.847C236.453 135.765 239.703 137.244 242.62 136.153L265.209 127.699C268.126 126.607 269.606 123.357 268.514 120.439L260.802 99.8332C259.71 96.9159 256.46 95.4361 253.543 96.5279Z" fill="#865091"/>
<path d="M233.285 101.934L210.696 110.388C207.779 111.48 206.299 114.73 207.391 117.647L216.592 142.231C217.684 145.149 220.934 146.628 223.851 145.537L246.44 137.082C249.357 135.991 250.837 132.741 249.745 129.823L240.544 105.239C239.452 102.322 236.202 100.842 233.285 101.934Z" fill="#4B3572"/>
<path d="M236.824 96.9447L236.646 97.011C234.702 97.7389 233.715 99.9056 234.443 101.85L247.332 136.29C248.06 138.235 250.227 139.222 252.172 138.494L252.349 138.427C254.294 137.699 255.28 135.533 254.552 133.588L241.663 99.1482C240.935 97.2034 238.768 96.2168 236.824 96.9447Z" fill="#223F61"/>
<path d="M6.49096 118.964C6.49096 118.964 51.8569 106.215 45.2705 135.588C44.1267 140.235 27.6618 164.166 47.274 175.655C51.4852 178.122 56.345 179.215 61.2253 179.19C69.9754 179.144 83.8469 177.46 90.0786 171.117C98.4303 162.615 89.3063 166.647 89.3063 166.647C89.3063 166.647 63.2519 177.364 49.8479 168.821C45.271 165.904 43.1965 160.256 44.4393 154.973C45.0746 152.349 46.0419 149.816 47.318 147.436C50.2331 141.976 63.5559 117.083 34.3783 109.849C27.6569 108.248 17.8947 106.81 5.30712 112.11C-7.28042 117.41 6.49096 118.964 6.49096 118.964Z" fill="url(#paint1_linear_1620_988)"/>
<path d="M96.1784 160.074L87.7275 163.237C84.8102 164.329 83.3304 167.579 84.4222 170.496L84.8411 171.616C85.933 174.533 89.183 176.013 92.1002 174.921L100.551 171.758C103.468 170.666 104.948 167.416 103.856 164.499L103.438 163.38C102.346 160.462 99.0957 158.982 96.1784 160.074Z" fill="#223F61"/>
<path d="M110.455 146.17L97.9306 150.858C95.0133 151.949 93.5335 155.199 94.6254 158.117L100.665 174.253C101.757 177.171 105.007 178.65 107.924 177.559L120.449 172.871C123.366 171.779 124.846 168.529 123.754 165.612L117.714 149.475C116.623 146.558 113.373 145.078 110.455 146.17Z" fill="#865091"/>
<path d="M131.308 133.746L112.63 140.737C109.713 141.828 108.233 145.079 109.325 147.996L118.525 172.58C119.617 175.497 122.867 176.977 125.785 175.885L144.462 168.895C147.38 167.803 148.86 164.553 147.768 161.636L138.567 137.051C137.475 134.134 134.225 132.654 131.308 133.746Z" fill="#4B3572"/>
<path d="M135.265 128.655L135.088 128.721C133.143 129.449 132.156 131.616 132.884 133.561L145.774 168C146.502 169.945 148.668 170.932 150.613 170.204L150.79 170.137C152.735 169.41 153.722 167.243 152.994 165.298L140.104 130.858C139.377 128.914 137.21 127.927 135.265 128.655Z" fill="#223F61"/>
<path d="M182.962 106.714C182.289 106.639 181.672 106.307 181.239 105.786C180.807 105.265 180.594 104.597 180.644 103.922L182.038 78.467C182.121 76.9465 183.405 75.7912 184.862 75.9256L186.892 76.1136C188.35 76.248 189.393 77.6176 189.189 79.1275L185.764 104.395C185.686 105.068 185.35 105.684 184.828 106.117C184.306 106.549 183.638 106.763 182.962 106.714Z" fill="url(#paint2_linear_1620_988)"/>
<path d="M170.928 108.909C170.719 108.97 170.5 108.99 170.283 108.967C170.066 108.943 169.856 108.878 169.665 108.773C169.473 108.669 169.304 108.528 169.167 108.358C169.031 108.188 168.929 107.993 168.867 107.784L163.89 91.9492C163.746 91.4989 163.785 91.0095 164.001 90.5885C164.217 90.1675 164.591 89.8493 165.041 89.7036L166.329 89.3148C166.55 89.2503 166.782 89.2323 167.011 89.2619C167.239 89.2916 167.459 89.3683 167.656 89.4872C167.853 89.6061 168.024 89.7646 168.157 89.9527C168.289 90.1408 168.382 90.3544 168.428 90.58L172.117 106.803C172.219 107.24 172.154 107.698 171.934 108.089C171.714 108.479 171.355 108.772 170.928 108.909Z" fill="url(#paint3_linear_1620_988)"/>
<path d="M164.211 118.04C163.319 119.145 161.526 119.132 160.145 118.01L135.636 98.097C134.172 96.9075 133.74 94.9386 134.686 93.7674L136.004 92.134C136.95 90.9622 138.893 91.0583 140.278 92.3453L163.47 113.892C164.776 115.106 165.102 116.935 164.211 118.04Z" fill="url(#paint4_linear_1620_988)"/>
<path d="M175.538 169.474C176.169 169.718 176.681 170.197 176.966 170.811C177.251 171.425 177.287 172.126 177.066 172.765L169.217 197.02C168.748 198.468 167.212 199.257 165.837 198.755L163.921 198.055C162.547 197.553 161.887 195.962 162.471 194.555L172.235 171.001C172.483 170.37 172.964 169.859 173.58 169.574C174.195 169.29 174.896 169.254 175.538 169.474Z" fill="url(#paint5_linear_1620_988)"/>
<path d="M187.731 170.425C187.949 170.419 188.166 170.456 188.37 170.534C188.574 170.612 188.76 170.729 188.919 170.879C189.077 171.029 189.204 171.209 189.293 171.408C189.382 171.607 189.431 171.822 189.437 172.04L190.205 188.62C190.23 189.092 190.066 189.555 189.75 189.907C189.434 190.259 188.991 190.472 188.519 190.498L187.174 190.544C186.944 190.55 186.715 190.508 186.501 190.421C186.288 190.334 186.095 190.204 185.935 190.039C185.775 189.873 185.65 189.677 185.57 189.461C185.489 189.245 185.455 189.015 185.467 188.785L186.045 172.158C186.057 171.71 186.237 171.283 186.55 170.962C186.862 170.641 187.284 170.449 187.731 170.425Z" fill="url(#paint6_linear_1620_988)"/>
<path d="M196.559 163.312C197.703 162.471 199.434 162.942 200.482 164.379L219.093 189.891C220.205 191.415 220.12 193.428 218.905 194.319L217.213 195.562C215.999 196.453 214.145 195.864 213.135 194.266L196.215 167.511C195.263 166.005 195.414 164.152 196.559 163.312Z" fill="url(#paint7_linear_1620_988)"/>
<defs>
<linearGradient id="paint0_linear_1620_988" x1="270.407" y1="77.5707" x2="394.171" y2="169.777" gradientUnits="userSpaceOnUse">
<stop stop-color="#13405B"/>
<stop offset="0.65" stop-color="#784791"/>
<stop offset="1" stop-color="#DD9C36"/>
</linearGradient>
<linearGradient id="paint1_linear_1620_988" x1="7.21984" y1="84.9908" x2="130.024" y2="177.479" gradientUnits="userSpaceOnUse">
<stop stop-color="#13405B"/>
<stop offset="0.65" stop-color="#784791"/>
<stop offset="1" stop-color="#DD9C36"/>
</linearGradient>
<linearGradient id="paint2_linear_1620_988" x1="181.298" y1="65.7383" x2="198.503" y2="68.4678" gradientUnits="userSpaceOnUse">
<stop stop-color="#784791"/>
<stop offset="1" stop-color="#13405B"/>
</linearGradient>
<linearGradient id="paint3_linear_1620_988" x1="164.449" y1="82.7309" x2="180.692" y2="86.6523" gradientUnits="userSpaceOnUse">
<stop stop-color="#784791"/>
<stop offset="1" stop-color="#13405B"/>
</linearGradient>
<linearGradient id="paint4_linear_1620_988" x1="136.537" y1="82.2142" x2="181.418" y2="110.554" gradientUnits="userSpaceOnUse">
<stop stop-color="#784791"/>
<stop offset="1" stop-color="#13405B"/>
</linearGradient>
<linearGradient id="paint5_linear_1620_988" x1="163.41" y1="159.561" x2="191.799" y2="167.738" gradientUnits="userSpaceOnUse">
<stop stop-color="#784791"/>
<stop offset="1" stop-color="#13405B"/>
</linearGradient>
<linearGradient id="paint6_linear_1620_988" x1="185.83" y1="163.778" x2="195.409" y2="165.064" gradientUnits="userSpaceOnUse">
<stop stop-color="#784791"/>
<stop offset="1" stop-color="#13405B"/>
</linearGradient>
<linearGradient id="paint7_linear_1620_988" x1="197.462" y1="151.967" x2="239.963" y2="169.743" gradientUnits="userSpaceOnUse">
<stop stop-color="#784791"/>
<stop offset="1" stop-color="#13405B"/>
</linearGradient>
</defs>
</svg>
