<svg width="40" height="40" viewBox="0 0 40 40" fill="none" xmlns="http://www.w3.org/2000/svg">
<g clip-path="url(#clip0_368_5503)">
<path d="M37.3325 2.6536C34.3125 -0.358063 28.9991 -1.94473 19.9708 4.3336C10.9508 -1.94306 5.62912 -0.358063 2.61579 2.6536C-0.397542 5.66527 -1.98421 10.9836 4.29579 20.0003C-1.98421 29.0169 -0.395876 34.3336 2.61579 37.3469C3.44664 38.2032 4.44318 38.8812 5.54466 39.3397C6.64613 39.7981 7.82946 40.0275 9.02246 40.0136C11.8558 40.0136 15.4508 38.8469 19.9708 35.6903C24.4925 38.8386 28.0841 40.0153 30.9191 40.0153C32.1122 40.0296 33.2957 39.8005 34.3972 39.342C35.4988 38.8835 36.4952 38.2052 37.3258 37.3486C40.3325 34.3336 41.9275 29.0169 35.6458 20.0003C41.9275 10.9836 40.3325 5.66694 37.3325 2.6536ZM30.7858 5.0136C31.3397 4.99579 31.8914 5.0911 32.4072 5.2937C32.923 5.4963 33.3921 5.80193 33.7858 6.19194C36.0441 8.4486 34.7608 12.1919 32.4141 15.8586C31.2375 14.4903 29.9358 13.0669 28.4141 11.5519C26.8925 10.0369 25.4741 8.73694 24.1058 7.56027C26.065 6.13 28.3716 5.25064 30.7858 5.0136ZM29.3608 20.0003C27.7475 21.9519 26.0975 23.6903 24.8808 24.9069C23.6641 26.1236 21.9225 27.7736 19.9708 29.3853C18.0191 27.7736 16.2791 26.1253 15.0625 24.9069C13.8458 23.6886 12.1941 21.9519 10.5825 20.0003C12.1941 18.0486 13.8441 16.3103 15.0625 15.0936C16.2808 13.8769 18.0175 12.2253 19.9708 10.6136C21.9241 12.2253 23.6625 13.8753 24.8808 15.0936C26.0991 16.3119 27.7475 18.0486 29.3608 20.0003ZM6.15579 6.19194C6.54944 5.80185 7.01852 5.49617 7.53434 5.29356C8.05016 5.09096 8.60189 4.9957 9.15579 5.0136C11.5692 5.25165 13.8748 6.13219 15.8325 7.5636C14.4625 8.74027 13.0391 10.0403 11.5241 11.5553C10.0091 13.0703 8.70412 14.5003 7.52746 15.8619C5.18246 12.1886 3.89746 8.4486 6.15579 6.19194ZM6.15579 33.8086C3.89746 31.5519 5.18246 27.8086 7.52746 24.1419C8.70412 25.5103 10.0058 26.9336 11.5275 28.4486C13.0491 29.9636 14.4641 31.2819 15.8258 32.4486C12.1491 34.7853 8.41246 36.0636 6.15579 33.8086ZM33.7858 33.8086C31.5275 36.0653 27.7858 34.7853 24.1191 32.4453C25.4825 31.2786 26.9125 29.9536 28.4208 28.4453C29.9291 26.9369 31.2375 25.5069 32.4208 24.1386C34.7608 27.8119 36.0441 31.5519 33.7858 33.8086Z" fill="url(#paint0_linear_368_5503)"/>
<path d="M19.9993 23.3337C21.8403 23.3337 23.3327 21.8413 23.3327 20.0003C23.3327 18.1594 21.8403 16.667 19.9993 16.667C18.1584 16.667 16.666 18.1594 16.666 20.0003C16.666 21.8413 18.1584 23.3337 19.9993 23.3337Z" fill="url(#paint1_linear_368_5503)"/>
</g>
<defs>
<linearGradient id="paint0_linear_368_5503" x1="3.05449" y1="-13.2062" x2="65.1519" y2="22.1685" gradientUnits="userSpaceOnUse">
<stop stop-color="#13405B"/>
<stop offset="0.65" stop-color="#784791"/>
<stop offset="1" stop-color="#DD9C36"/>
</linearGradient>
<linearGradient id="paint1_linear_368_5503" x1="17.18" y1="14.4647" x2="27.5289" y2="20.3611" gradientUnits="userSpaceOnUse">
<stop stop-color="#13405B"/>
<stop offset="0.65" stop-color="#784791"/>
<stop offset="1" stop-color="#DD9C36"/>
</linearGradient>
<clipPath id="clip0_368_5503">
<rect width="40" height="40" fill="white"/>
</clipPath>
</defs>
</svg>
