<svg width="1512" height="648" viewBox="0 0 1512 648" fill="none" xmlns="http://www.w3.org/2000/svg">
<g clip-path="url(#clip0_1503_11988)">
<path d="M0.00121887 -0.399509L2668.92 2.1223L1735.93 499.304C1113.08 831.221 335.872 607.497 0.00121887 -0.399509Z" fill="url(#paint0_linear_1503_11988)"/>
<mask id="mask0_1503_11988" style="mask-type:luminance" maskUnits="userSpaceOnUse" x="0" y="-1" width="2669" height="654">
<path d="M0.00121887 -0.399509L2668.92 2.1223L1735.93 499.304C1113.08 831.221 335.872 607.497 0.00121887 -0.399509Z" fill="white"/>
</mask>
<g mask="url(#mask0_1503_11988)">
<path opacity="0.9" d="M-435.418 -650.446L3191 -129.222L1826.67 365.412C915.845 695.626 -96.9261 240.812 -435.418 -650.446Z" fill="url(#paint1_linear_1503_11988)"/>
<path opacity="0.46" d="M202.125 -806.489L3853.91 -511.414L2522.92 66.9685C1634.35 453.094 595.297 62.0344 202.125 -806.489Z" fill="url(#paint2_linear_1503_11988)"/>
</g>
</g>
<defs>
<linearGradient id="paint0_linear_1503_11988" x1="470.771" y1="647.944" x2="2188.56" y2="-639.037" gradientUnits="userSpaceOnUse">
<stop stop-color="#FBB715"/>
<stop offset="0.0411779" stop-color="#CB8C4C"/>
<stop offset="0.102765" stop-color="#874F9D"/>
<stop offset="0.122045" stop-color="#6F4289"/>
<stop offset="0.156585" stop-color="#4A2E6C"/>
<stop offset="0.188773" stop-color="#2F1F57"/>
<stop offset="0.217417" stop-color="#1F174A"/>
<stop offset="0.239582" stop-color="#1A1446"/>
<stop offset="0.399464" stop-color="#163B58"/>
<stop offset="0.570932" stop-color="#125E69"/>
<stop offset="0.732918" stop-color="#107775"/>
<stop offset="0.879897" stop-color="#0E867C"/>
<stop offset="0.998458" stop-color="#0E8C7F"/>
</linearGradient>
<linearGradient id="paint1_linear_1503_11988" x1="-447.685" y1="-107.244" x2="3188.46" y2="-25.8702" gradientUnits="userSpaceOnUse">
<stop stop-color="#FBB715"/>
<stop offset="0.0603525" stop-color="#E6A42C"/>
<stop offset="0.18697" stop-color="#B2756A"/>
<stop offset="0.284179" stop-color="#874F9D"/>
<stop offset="0.377971" stop-color="#693E85" stop-opacity="0.780289"/>
<stop offset="0.566624" stop-color="#302057" stop-opacity="0.364142"/>
<stop offset="0.653966" stop-color="#1A1446" stop-opacity="0.2"/>
</linearGradient>
<linearGradient id="paint2_linear_1503_11988" x1="223.805" y1="-263.559" x2="3858.23" y2="-407.95" gradientUnits="userSpaceOnUse">
<stop offset="0.0883838" stop-color="#874F9D"/>
<stop offset="0.509836" stop-color="#1A1446"/>
<stop offset="0.998458" stop-color="#0E8C7F" stop-opacity="0.7"/>
</linearGradient>
<clipPath id="clip0_1503_11988">
<rect width="1512" height="648" fill="white"/>
</clipPath>
</defs>
</svg>
