<?xml version="1.0" encoding="UTF-8"?>
<svg xmlns="http://www.w3.org/2000/svg" xmlns:xlink="http://www.w3.org/1999/xlink" viewBox="0 0 1700.787401574800242 1133.85826771649954">
  <defs>
    <style>
      .cls-1 {
        fill: #1a1446;
      }

      .cls-2 {
        fill: url(#linear-gradient-2);
      }

      .cls-3 {
        fill: url(#linear-gradient-3);
        opacity: .9;
      }

      .cls-4 {
        fill: url(#linear-gradient-4);
        opacity: .46;
      }

      .cls-5 {
        fill: none;
      }

      .cls-6 {
        clip-path: url(#clippath-1);
      }

      .cls-7 {
        fill: url(#linear-gradient-5);
        opacity: .33;
      }

      .cls-7, .cls-8 {
        mix-blend-mode: multiply;
      }

      .cls-9 {
        isolation: isolate;
      }

      .cls-8 {
        fill: url(#linear-gradient-6);
        opacity: .44;
      }

      .cls-10 {
        fill: url(#linear-gradient);
      }

      .cls-11 {
        clip-path: url(#clippath);
      }

      .cls-12 {
        fill: #0e8c7f;
      }
    </style>
    <linearGradient id="linear-gradient" x1="1023.168423220618934" y1="409.153445833334445" x2="1456.598468413684714" y2="158.912492566246357" gradientUnits="userSpaceOnUse">
      <stop offset="0" stop-color="#fbb715"/>
      <stop offset=".041177860958034" stop-color="#cb8c4c"/>
      <stop offset=".102765" stop-color="#874f9d"/>
      <stop offset=".122044516011727" stop-color="#6f4289"/>
      <stop offset=".156585223987897" stop-color="#4a2e6c"/>
      <stop offset=".188772780104116" stop-color="#2f1f57"/>
      <stop offset=".217417206613296" stop-color="#1f174a"/>
      <stop offset=".239582" stop-color="#1a1446"/>
      <stop offset=".399463495324127" stop-color="#163b58"/>
      <stop offset=".570932026036042" stop-color="#125e69"/>
      <stop offset=".732918174242464" stop-color="#107775"/>
      <stop offset=".879897452932256" stop-color="#0e867c"/>
      <stop offset=".998458" stop-color="#0e8c7f"/>
    </linearGradient>
    <linearGradient id="linear-gradient-2" x1="1296.873269324383728" y1="485.415357137751926" x2="1547.796181129358956" y2="463.462446935901369" gradientUnits="userSpaceOnUse">
      <stop offset="0" stop-color="#fbb715"/>
      <stop offset=".007131734519869" stop-color="#f0ad21"/>
      <stop offset=".046037109797093" stop-color="#b77a63"/>
      <stop offset=".074297131153264" stop-color="#945b8d"/>
      <stop offset=".0888006" stop-color="#874f9d"/>
      <stop offset=".108478936993227" stop-color="#673d83" stop-opacity=".971035079485618"/>
      <stop offset=".133523263892531" stop-color="#452b69" stop-opacity=".940286285032126"/>
      <stop offset=".157274016704852" stop-color="#2d1e55" stop-opacity=".918084588746741"/>
      <stop offset=".178958219649806" stop-color="#1f164a" stop-opacity=".904656894762843"/>
      <stop offset=".196688" stop-color="#1a1446" stop-opacity=".9"/>
      <stop offset=".28929364353633" stop-color="#18274f" stop-opacity=".91664510578702"/>
      <stop offset=".51285892801404" stop-color="#135263" stop-opacity=".952470892359576"/>
      <stop offset=".713579873583346" stop-color="#107272" stop-opacity=".978453379770731"/>
      <stop offset=".882280219084338" stop-color="#0e857b" stop-opacity=".994304314201393"/>
      <stop offset=".998458" stop-color="#0e8c7f"/>
    </linearGradient>
    <clipPath id="clippath">
      <path class="cls-5" d="M932.186931339711009,245.98051087391741l-.000211151784242-.000351919659806,617.813279812073233,74.708531824235251-229.804945321389823,89.190659267377669c-153.416700962419782,59.543469089905557-327.133676330375238-13.836425251911351-388.008123338899168-163.898839171953114Z"/>
    </clipPath>
    <linearGradient id="linear-gradient-3" x1="785.766169111523595" y1="244.301669199895514" x2="1633.819747243895108" y2="244.301669199895514" gradientTransform="translate(88.146899999999732 -144.064499999998588) rotate(8.122810031487862)" gradientUnits="userSpaceOnUse">
      <stop offset="0" stop-color="#fbb715"/>
      <stop offset=".060352480822918" stop-color="#e6a42c"/>
      <stop offset=".186969616613945" stop-color="#b2756a"/>
      <stop offset=".284179" stop-color="#874f9d"/>
      <stop offset=".377971256669105" stop-color="#693e85" stop-opacity=".780288699049297"/>
      <stop offset=".566623654390244" stop-color="#302057" stop-opacity=".364142067302612"/>
      <stop offset=".653966" stop-color="#1a1446" stop-opacity=".2"/>
    </linearGradient>
    <linearGradient id="linear-gradient-4" x1="957.537509015965043" y1="191.173804889670464" x2="1805.645751796668264" y2="191.173804889670464" gradientTransform="translate(52.027782761394519 -75.516899999999623) rotate(4.565696723040443)" gradientUnits="userSpaceOnUse">
      <stop offset=".0883838" stop-color="#874f9d"/>
      <stop offset=".509836" stop-color="#1a1446"/>
      <stop offset=".998458" stop-color="#0e8c7f" stop-opacity=".7"/>
    </linearGradient>
    <clipPath id="clippath-1">
      <path class="cls-5" d="M1314.437015594070544,605.122969448690128v.000281535722024l222.832220340198546-261.98433821668732-128.700749821538921,49.716534902429885c-85.920058719990266,33.190669228791194-128.064127157520488,128.226010200877681-94.131470518659626,212.267521778535411Z"/>
    </clipPath>
    <linearGradient id="linear-gradient-5" x1="1356.289889361545647" y1="518.812998694835187" x2="1614.951698712568032" y2="518.812998694835187" gradientTransform="translate(-66.598299999999654 104.694478926456213) rotate(-5.434085009575808)" gradientUnits="userSpaceOnUse">
      <stop offset="0" stop-color="#1a1446"/>
      <stop offset=".16438128579617" stop-color="#172c51"/>
      <stop offset=".548582621425845" stop-color="#125f6a"/>
      <stop offset=".83847974999162" stop-color="#0f7f79"/>
      <stop offset=".998458" stop-color="#0e8c7f"/>
    </linearGradient>
    <linearGradient id="linear-gradient-6" x1="1353.596270542648199" y1="444.860872429580013" x2="1698.947932681327075" y2="444.860872429580013" gradientTransform="translate(212.646299999999428 -421.26929999999993) rotate(19.340878689185999)" gradientUnits="userSpaceOnUse">
      <stop offset="0" stop-color="#1a1446" stop-opacity=".9"/>
      <stop offset=".050606476787297" stop-color="#181e4b" stop-opacity=".909100690446482"/>
      <stop offset=".25351394785329" stop-color="#15455d" stop-opacity=".941568643550271"/>
      <stop offset=".453487056645375" stop-color="#11646c" stop-opacity=".967068004785588"/>
      <stop offset=".647302659417255" stop-color="#0f7a76" stop-opacity=".985294898532633"/>
      <stop offset=".83216155258525" stop-color="#0e877c" stop-opacity=".996267723559616"/>
      <stop offset=".998458" stop-color="#0e8c7f"/>
    </linearGradient>
  </defs>
  <g class="cls-9">
    <g id="Layer_1" data-name="Layer 1">
      <g>
        <g>
          <path class="cls-10" d="M932.186931339711009,245.98051087391741l-.000211151784242-.000351919659806,617.813279812073233,74.708531824235251-229.804945321389823,89.190659267377669c-153.416700962419782,59.543469089905557-327.133676330375238-13.836425251911351-388.008123338899168-163.898839171953114Z"/>
          <path class="cls-2" d="M1314.437015594070544,605.122969448690128v.000281535722024l222.832220340198546-261.98433821668732-128.700749821538921,49.716534902429885c-85.920058719990266,33.190669228791194-128.064127157520488,128.226010200877681-94.131470518659626,212.267521778535411Z"/>
          <g class="cls-11">
            <path class="cls-3" d="M849.437600458158158,83.395035871159052v-.00028153573021l825.078191156731009,221.386252843289185-329.595424732438914,76.620933637807866c-220.036218645560439,51.151592889867061-441.871467620778276-82.270440699352548-495.482766424292095-298.006904945366841Z"/>
            <path class="cls-4" d="M1001.368653062130761,64.976123965246188v-.000492687524456l837.231017081649043,169.735004420891528-324.202537486558867,96.935636749358309c-216.436150912970334,64.713872727035778-446.126722345041344-54.678320565411923-513.028479595090175-266.670148482725381Z"/>
          </g>
          <g class="cls-6">
            <path class="cls-7" d="M1359.284671623619943,635.304444053204861h.000211151800613l217.253589898038626-310.865626999321648-136.089162304539059,68.017694490273243c-90.852423899419591,45.408264047095145-127.191084866240999,154.134968987445973-81.164638745300181,242.847932509048405Z"/>
            <path class="cls-8" d="M1294.993735943329739,634.526983141457094v.00021115180607l437.319721714689877-255.324258660982196-203.044340958858811,6.318647102098112c-135.551780984511424,4.21817942249254-240.440238966721154,115.7018229752357-234.275380755831065,249.005400407078014Z"/>
          </g>
        </g>
        <g>
          <path class="cls-1" d="M1221.127277480300108,567.274080455172225c16.337518271870067,12.795587667031214,33.540195834619226,26.125952448608587,48.167314177449953,37.581500436255737h-81.616292436310687c-18.939753001928693-14.816239967854926-63.2481977292191-48.459829798411192-65.142018184749759-50.601612846024182,14.709397159229411,0,28.009848769730525-.008938759357079,41.311356139251075.002181901881158,9.586080372529977.007812616441697,19.049833471430247-.88303680957506,27.844164994039602-5.007746370518362,10.571385035180356-4.95425458227237,16.909106182820324-12.971265961036806,16.540083227870127-25.098417426842389-.358324597280443-11.830272041060198-7.20316197423017-19.055323418131593-17.635538743899815-23.353599755125288-7.817824851499608-3.219361044947618-16.122847279570124-4.006816475008236-24.468973923891099-4.054536780842682-19.314477055369935-.107968951521798-66.241837504579962-.136755979666304-66.241837504579962-.136755979666304l.253522922681441,108.250487257138047-41.014265562711444.116766943001494c-13.369568631640504.037796171438458-24.222278242568791-10.762758945971655-24.201163063020431-24.132046041891954.044482644951131-28.349099321494577.091428727530001-74.555798692022108-.025549367279382-99.150407934355826,0,0,110.585826117470788-.855164772536227,162.58540461883058-.536044025315277,19.262252177890332.117893085924152,37.831644930209222,4.141390552807025,54.261436536789915,14.902882588007742,25.448788639820123,16.665648162378602,23.36915460406999,49.295005534297161-3.82438132354946,63.123688553699139-7.713375096560412,3.921159229897057-16.171834496180963,5.421392738279792-26.793262506920655,8.093659480598944"/>
          <path class="cls-1" d="M916.77341371516377,604.93455166300555c-23.180102777412685,0-46.374634260511812.478188433324249-69.5391821893827-.124579559456834-27.76631966394325-.722913364492342-50.477102395335351-11.372143028336723-63.146984039933159-37.367955586872995-15.006346588795168-30.787832177778.432790786314399-66.489940864519667,33.872899824977139-80.23852696942231,10.617908545928003-4.364789152650701,21.729982665192438-6.131918530772055,33.086289021981429-6.158594040962271,46.659337257831794-.105716665706495,148.202956539909792-.171244106309132,148.202956539909792-.171244106309132v15.331098429683152s-78.919549552596436-.12457955946229-113.987779662777029-.058981734938243c-21.172612322574423.038922314340198-36.002295246783433,10.992773635417507-43.022795246239184,30.812185018213313-1.141009385300094,3.223936000537833-1.561412599908181,8.519693420375916-1.561412599908181,8.519693420375916,0,0,4.166939814804209.047790689754947,7.993643711438381.021044795620583,39.821186527164173-.275693861221953,122.05356618199221-.271330057445994,122.05356618199221-.271330057445994,0,8.793205379709434-7.097234156741251,15.918311573484061-15.890228384670991,15.908246671225243-25.615757017741998-.031109697903958-76.081738752109231-.084531102203982-104.934504761378776-.071158155145895-4.989868725771885.003378428734322-9.326996883604806.01675137579241-9.326996883604806.01675137579241,0,0,.890779019582624,5.172233619352482,2.729066506426534,9.876343707677734,7.197531077855274,18.430384486809999,21.283959700020205,28.2855426309834,40.958801989672793,28.33340370467522,34.770154166117209.083404959303152,114.98863914904905.026745894123451,114.98863914904905.026745894123451v15.64346231943091s-58.699776898269192.03336198372017-82.475979157552501.03336198372017v-.059967109984427Z"/>
          <path class="cls-1" d="M328.074128050724539,604.809972103548716c-27.765193521072433-.722913364492342-50.478227308152782-11.372143028336723-63.146983129894579-37.366829443961251-15.005220824990829-30.787832177771634.432650029371871-66.491067007431411,33.872689528883711-80.239653112334054,10.619384842710133-4.364789152650701,21.729980899456677-6.131918530772055,33.087624550908004-6.158594040962271,46.660463400726258-.104590522802027,148.2029370793407-.171244106309132,148.2029370793407-.171244106309132v15.332083804717513s-78.919525740174322-.125564934496651-113.98867519327996-.059967109972604c-21.172964242234229.038922314340198-36.001380255699587,10.992773635417507-43.020769606441718,30.812185018213313-1.143246176914545,3.223936000537833-1.562312096843925,8.519693420375916-1.562312096843925,8.519693420375916,0,0,4.166728663026333.04891683266942,7.993432559648681.022170938545059,39.822312670045903-.275693861241962,122.051365540170082-.271330057457817,122.051365540170082-.271330057457817,0,8.793205379714891-7.097298915798092,15.917185430571408-15.890298367169635,15.907120528312589-25.615738679166498-.029983554983119-76.081650029632328-.085657245114817-104.934486422816917-.070032012237789-4.989868725771885.002252285826216-9.323618454957796.0167513757915-9.323618454957796.0167513757915,0,0,.889652876701803,5.171107476445286,2.728081131399449,9.875217564770537,7.196053015333746,18.430384486809999,21.28276317320433,28.2855426309834,40.956479319975188,28.334459463656458,34.772336067964716.082349200321914,114.990801590316551.026675510180212,114.990801590316551.026675510180212v15.641350801495719s-128.84953819853672.452709449957183-152.016268029237835-.150058542823899"/>
          <path class="cls-12" d="M581.07345828198595,562.402104689284897h-65.266596095452769v17.631878779448016c0,13.806441696922775,11.190833737082357,24.979468581932451,24.998401228111106,24.93723822280117,13.162498771488572-.038922314342926,26.735335855565609-.056799833046171,40.410581557971454-.066723967442158l-.142386690629792-42.502393034807028Z"/>
          <path class="cls-12" d="M581.07345828198595,480.992600244897403h-65.266596095452769v43.162946235645904c20.603417479708696-.117822701992736,42.867191870909664-.15787115924104,65.408982786082561-.173496392118068l-.142386690629792-42.989449843527836Z"/>
          <path class="cls-12" d="M737.22106469857863,496.683923638018314c-3.587552143260837-2.666636027775894-7.50406593470143-4.781813949140087-11.643415248922793-6.554574041830165-15.858203295038948-6.793597874529041-32.587126189569062-8.963323343094089-49.617433072869062-9.005483318308507-20.068569994726204-.052295261398285-29.379941645853251-.094596004471896-57.383103234643386-.127887604267926v-.001126142905377h-24.056030787762211v15.759243887407138h23.731279334180726v.017736750829499c20.947031826544844-.075592342844175,23.473674149953695-.796183037604351,42.961717489068178.985304662626731,7.039448770815397.643942592929307,13.841985232847037,2.378695362387589,19.859459338348643,6.193152551529238,11.821332983080538,7.496451818454261,11.594497291984226,19.157732039028815-.754938034463521,25.749046493291644-7.927060513528886,4.228103556899441-16.656849750085712,5.662598472888931-25.564569561976896,5.748255718003747-1.375653914161376.013302563126672-2.92473383214201.033361983717441-4.585090743647925.055673690131698h-134.353139230233865c-.001126142888097,0-.008938759123339-.001126142910834-.008938759123339-.001126142910834v.001126142910834h-.056659063746338c0,6.117419440803133,3.114911211328945,11.499960248664138,7.840143804269246,14.670474844897399,1.019714935138836.685046809147025,2.236371551167395,1.024226976951468,3.466330729991569,1.024226976951468h159.358156547775252c21.485257740161614-.487127192654043,36.916441731173109-6.633615197332801,43.462076848266406-10.325604344979183,2.77017072162289-1.670421855698805,5.365789296517505-3.251808037558476,7.770104349382564-5.031043451972437.391405035398748-.295894049689196.744169293143386-.566097964246183,1.046481151381158-.807444466718152,13.123563579764777-10.491288120656463,12.127151465811039-28.236696182244486-1.472431855274408-38.349952204686815"/>
          <path class="cls-12" d="M743.159357032705884,556.662435810973875c-.123044101042979-.151325453573918-.232561496319249-.290685638733521-.369176704655729-.450457164134605-.666043130723665-.825744289012619-1.503611899130192-1.572588190378156-2.302891809562425-2.337943065818763-1.07462184506403-.987134644851722-2.350260194530165-2.022834202705781-3.916021103949788-3.090839985317871-23.56157144910685,14.452918111403051-49.307532628556146,12.326126841281621-49.307532628556146,12.326126841281621-.054195626184082-.062078627926894,2.465408304198718,12.957681862181744-7.475336450044779,19.75057589739572-8.904482151100638,6.086309742895537-19.522531464866006,7.046909645432606-29.927317470384878,7.222447171581734-12.675934662578584.216219438785629-40.790654780618752.169343740140903-55.339435439718727.16371302558764v14.745222580553673c23.734305843167022-.005701098456484,60.253430288822528-.009149911127679,81.868827915777729-.072284298046725,7.608573229738795-.023719385044387,15.205814646752515-.449331021216494,22.734220580110559-1.54710920702928,13.944828385832807-2.035925614029111,27.579239177704949-5.471576481704687,39.012334402235865-14.275550603009833,10.90704573084804-8.398773825367243,12.771938343266811-22.348657975493552,5.022328708748319-32.433901193043312Z"/>
        </g>
        <g>
          <path class="cls-1" d="M368.92425725229441,673.015239772326822h11.340751508227186c1.822028798978863,0,3.52820564898866.192288901956999,5.118600933950802.575318259338019,1.590395284962142.383733196676985,2.973369127868864.959051456020461,4.148076921535903,1.726658617288194,1.174707793687048.767607161247724,2.097793037192787,1.722505965282835,2.769185346596714,2.864907563918678.671462693331705,1.143246205807372,1.006982888206949,2.473784054365751,1.006982888206949,3.992669304705487,0,1.534369715345747-.331860230515304,2.873142483942502-.99508800401054,4.015544082578344-.663227773514336,1.143175821855039-1.542530123379038,2.098145009837026-2.637074709758053,2.864837179988172-1.095314720515489.767677545207334-2.342025274707339,1.339687759722437-3.740553966162224,1.714482197055986-1.398880611102868.376342883873804-2.833023571206468.563775294485822-4.303551164933197.563775294485822h-4.699186952614582v14.193834858106129h-8.008142801038957v-32.512027357464831ZM376.932400053333367,688.384204757367115h2.61328494137797c.911194187882757,0,1.702094582055906-.163713025593097,2.373557275393978-.491842916098904.671462693325338-.327285283334277,1.230733402054284-.774997474101838,1.67837519760451-1.342080813405119.447219491975375-.567012955350947.783165918120176-1.219260852254592,1.006986821549617-1.954069101251662.223820903434898-.734878632943946.335516261532575-1.510720714219133.335516261532575-2.325696261659687,0-.974606304964254-.147735869316421-1.838005997538858-.443559527602702-2.590058309873712-.295823658292647-.750363097960872-.695182077776735-1.386211538692805-1.198849481719662-1.905856107890941-.503245100336244-.518799962002959-1.094892416921539-.914850346802268-1.774097342567075-1.18653232392171-.679623390887173-.271752361059043-1.410845879227054-.407522965659155-2.193937485730203-.407522965659155h-2.397276659839008v12.203658799760888Z"/>
          <path class="cls-1" d="M453.699308026599283,673.015239772326822v2.781502604635534h-16.303874340549555v10.717642845640512h13.546513494214196v2.780587613509852h-13.546513494214196v12.899192814758862h16.303874340549555v3.333101478920071h-24.287875453563174v-32.512027357464831h24.287875453563174Z"/>
          <path class="cls-1" d="M515.816927088546436,673.015239772326822v2.781502604635534h-11.244958979337753v29.730524752829297h-7.959859424980095v-29.730524752829297h-11.269094189168754v-2.781502604635534h30.473912593486602Z"/>
          <path class="cls-1" d="M550.505647047530147,673.015239772326822h12.227800179512087c2.110039841023536,0,3.952128060093855.220160938979461,5.526546192905698.659567825816339,1.574066213177503.439477270747375,2.88503729556578,1.054843987321874,3.932068640015132,1.846170533646728,1.046609040861767.791326546321216,1.834275602823254,1.73081126926445,2.361662391211212,2.81746879381717.527395533558774,1.086798292415551.791335278165207,2.270022571532536.791335278165207,3.548194774775766,0,.927237918811443-.180050845096048,1.801969424410345-.539712728002996,2.625179891900189-.359661882895125.824055074621356-.862906983251378,1.582653092616965-1.510571208145848,2.278257491549084-.647329705368975.694830175676543-1.430491695788078,1.310971115517532-2.349415646713169,1.84617053365946-.919433919845687.535199418141929-1.930076772418033.978758956935053-3.033133725240077,1.330537848569293l11.580479174204811,15.560479663730803h-8.679112806848934l-10.909509168403929-14.69707997115438h-1.414435459658307v14.69707997115438h-7.984001113000886v-32.512027357464831ZM558.489648160531033,687.976611407757446h1.726236270088521c.974606280344233,0,1.878054407359741-.135840988559721,2.709499773850439-.407452581763209.830600759328263-.271752361057224,1.549854141209835-.659567825790873,2.15790091350209-1.162812938848219.607210673103509-.503245113064622,1.082645613096247-1.122764481642662,1.426330343868358-1.858417337834908.34368473075665-.734949016834435.515562288119327-1.566324020397587.515562288119327-2.493421171360751,0-.863399692567327-.131758717192497-1.654726238892181-.39569845513779-2.374050022872325-.263517434369533-.718408792852642-.627613504861074-1.337857777465615-1.090810148973105-1.857502346671026-.463970867341231-.519714953123184-1.023311959997955-.92308526682973-1.678375197610876-1.2111667000936-.655485541200505-.287236826065055-1.366574387187029-.43124235070718-2.133759225481299-.43124235070718h-3.236886562225664v11.796065450151218Z"/>
          <path class="cls-1" d="M629.621970608143783,706.246520529835834c-2.621519861208071,0-5.067079897094118-.423852037871256-7.336680107701795-1.270852274326899-2.270022514196171-.846929852503308-4.236056834191004-2.033462176434114-5.898102960016331-3.560441578923928-1.662820349061803-1.526275563182935-2.969286859926797-3.340491791746899-3.920173755825999-5.442789453556543-.951238815546276-2.101382670718522-1.426682263501789-4.407371431452702-1.426682263501789-6.917262442884748,0-2.460692643031507.475443447955513-4.718468410439527,1.426682263501789-6.773256918235347.950886895899203-2.053099293420019,2.257353406764196-3.815864867778146,3.920173755825999-5.286396356887053,1.662046125825327-1.470390721258809,3.62808044582016-2.613636927057087,5.898102960016331-3.428753242371386,2.269600210607678-.815045931332861,4.715160246493724-1.222498513099708,7.336680107701795-1.222498513099708,2.621519861195338,0,5.062927245231549.411605233746741,7.324785223511753,1.234886085125254,2.261435674719905.823210467484387,4.227469994713829,1.969694334140513,5.898102960030883,3.440225823247602,1.670140277786231,1.471305712384492,2.985193628122943,3.224921375571284,3.944315443838605,5.262536203985292.958629128225766,2.038459435605546,1.438154844109704,4.272515817932799,1.438154844109704,6.702098763087633,0,1.725884394047171-.215585977951378,3.352668211955461-.647240044710088,4.878873391196976-.431252916485391,1.52613479530919-1.0470419211033,2.928745790151879-1.846170533646728,4.207832984517154-.799501592236084,1.279016810454777-1.758553024029425,2.421418409045145-2.87723520934378,3.428753242367748-1.118611801372026,1.006490226114693-2.369826927086251,1.861654998647282-3.752026546770139,2.565423933681814-1.382903458971668.702994711788051-2.873494331017355,1.243050621225848-4.471691982633274,1.617774674663451-1.598570070452297.375639044528725-3.268780732160849.56384567841269-5.010994154386935.56384567841269ZM629.621970608143783,703.513371686429309c1.582653052655587,0,2.981121558487757-.363392240398753,4.195948223024061-1.090810176548985,1.214394101278231-.727558704011244,2.229541525361128-1.73003704599796,3.044939355787392-3.00898347250768.815116294713334-1.279016810416579,1.434565263678451-2.801139721628715,1.858065371207886-4.567846796160666.423429723589834-1.766003235239623.635426121109049-3.6956491121.635426121109049-5.790556461068263,0-2.061334213463851-.211996397519215-3.947553204368887-.635426121109049-5.65788274946317-.423500107529435-1.710259161149224-1.042949076494551-3.180720266325807-1.858065371207886-4.41152408342532-.815397830426264-1.230733433139903-1.830545254509161-2.189784889160364-3.044939355787392-2.877224752010079-1.214826664536304-.687439862820611-2.613295170368474-1.031124602257478-4.195948223024061-1.031124602257478-1.598630204792244,0-3.005323432130353.343684739436867-4.219727762412731,1.031124602257478-1.214756249909442.687439862849715-2.229893713946694,1.646491318870176-3.044939645302293,2.877224752010079-.815478153829645,1.230803817099513-1.43084485485997,2.701264922276096-1.846110042560213,4.41152408342532-.416180178803188,1.710329545094282-.623601620846784,3.596548535999318-.623601620846784,5.65788274946317,0,2.094907348968263.207421442043596,4.02455322582864.623601620846784,5.790556461068263.415265187700243,1.766707074531951,1.030631888730568,3.288829985744087,1.846110042560213,4.567846796160666.815045931355598,1.278946426509719,1.830183395392851,2.281424768496436,3.044939645302293,3.00898347250768,1.214404330282377.727417936150232,2.621097557620487,1.090810176548985,4.219727762412731,1.090810176548985Z"/>
          <path class="cls-1" d="M692.962651223759167,689.247463682082525c0,2.109687974652843.319543042744044,3.972257964438541.958629128206667,5.586724594282714.639508389069306,1.614537013783774,1.486930907698479,2.968935015282113,2.541704484461661,4.063827459858658,1.05484396067186,1.094962828537973,2.269600210601311,1.926267448166982,3.644409517599343,2.493491555320361,1.374387003435004.567012955347309,2.805221918826646.851012120554515,4.291730522930266.851012120554515,1.134588953515959,0,2.193867101796059-.19559694675263,3.17670830197585-.587565063466172.983193119821408-.391123509549288,1.902196095373256-.923085266835187,2.757360846322626-1.59405528960815.854742447367244-.671955397805505,1.658315777531243-1.446812104057244,2.409523463695223-2.325696261648773.751219927927195-.878884157611537,1.470543711910068-1.806051692470646,2.157900913487538-2.781502604631896l3.332608707195504,2.445982401268338c-.719253381888848,1.150566134701876-1.586313017008251,2.26185803543558-2.601390057195204,3.332186487785293-1.015147424089264,1.071173059532157-2.153889029482343,2.013895443362344-3.416506351883072,2.828941374737042-1.262687706323049.815820154621179-2.637497013326538,1.467293828251059-4.123935233508746,1.954209869094484-1.486508604104529.487619880190323-3.060997120856882.731500204206895-4.723395166323826.731500204206895-2.797409302569577,0-5.374716205447839-.407452581755933-7.732308178917265-1.222498513108803-2.358002426830353-.81511631529429-4.391523256120308-1.966456673248103-6.10185280119822-3.452613395254957-1.710693058041215-1.486790177401417-3.044961221312406-3.273275136798475-4.004012653106656-5.3591733424837-.959121815710205-2.085827821756538-1.438647531619608-4.407512199297344-1.438647531619608-6.964771596905848,0-2.477866322424234.45580633145255-4.755279206818159,1.366574387187029-6.832942492474103.911260743244384-2.077663285648669,2.193937485723836-3.872242397219452,3.848170995307555-5.382892727533545,1.654655813159479-1.510650330284989,3.636244981717027-2.689088502029335,5.946386336071555-3.536862961733277,2.309296747203007-.846929852508765,4.862896115834701-1.270781890378203,7.660305418406097-1.270781890378203,1.870241791103581,0,3.580148989420195.220090555018032,5.130847737787917.659497441858548,1.55034682871883.440321877942552,2.961122324004464,1.047453674482313,4.23197456624257,1.822451148589607,1.270429938642337.775701313454192,2.405511579649101,1.702165009000964,3.404681851627174,2.781502604628258.998747968383213,1.078563372393546,1.881714371718772,2.265095696318895,2.649321513587893,3.56044157893848l-3.35682077914953,2.349415646702255c-.687369461527851-.974535921031929-1.434917183325524-1.894313143062391-2.241798558195114-2.75764245170285-.807233294543039-.862625469326304-1.666480313419925-1.617845058592138-2.577248369168046-2.265236464163536-.91126074323256-.647250637732213-1.870312175033177-1.158730670826117-2.877224679318715-1.534369715353023-1.006982888206949-.375498276680446-2.054014232649024-.563775294487641-3.141164417256732-.563775294487641-1.486508604116352,0-2.905026331723093.279916897165094-4.2556939507067.838765316386343-1.350667618965417.559833794326551-2.537622216487762,1.38712652983304-3.560511872899042,2.48201897443505-1.022889656427651,1.094962828512507-1.838357870781692,2.449220062122549-2.445560035916969,4.06375707589541-.607624468703762,1.614607397737927-.910768055729022,3.477036619640785-.910768055729022,5.586654210392226Z"/>
          <path class="cls-1" d="M762.488601234280395,690.038860612337885v15.488406517453768h-7.984001113014529v-32.512027357464831h7.984001113014529v14.242118235375528h13.06698777830934v-14.242118235375528h7.912350272162257v32.512027357464831h-7.912350272162257v-15.488406517453768h-13.06698777830934Z"/>
          <path class="cls-1" d="M845.369550065153817,673.015239772326822v2.781502604635534h-16.303874340543189v10.717642845640512h13.546583878149249v2.780587613509852h-13.546583878149249v12.899192814758862h16.303874340543189v3.333101478920071h-24.287805069634487v-32.512027357464831h24.287805069634487Z"/>
          <path class="cls-1" d="M879.914264503109735,673.015239772326822h7.768344751126278l11.244536675769268,22.201977861437626,11.07723407386402-22.201977861437626h7.600197542053138v32.512027357464831h-7.959859424972819v-21.194643028115024l-10.621357358484602,21.194643028115024h-3.06916165675284l-10.981073051609201-21.43437070015716v21.43437070015716h-5.058861550993242v-32.512027357464831Z"/>
          <path class="cls-1" d="M955.24254329363248,673.015239772326822h7.959859626047546v32.512027357464831h-7.959859626047546v-32.512027357464831Z"/>
          <path class="cls-1" d="M1008.944216420019075,689.247463682082525c0,2.109687974652843.31996535441067,3.972257964438541.959051456051384,5.586724594282714.639086101598878,1.614537013783774,1.48686056131919,2.968935015282113,2.541704548650159,4.063827459858658,1.054843987340064,1.094962828537973,2.269177964339178,1.926267448166982,3.643987306058989,2.493491555320361,1.374809341770742.567012955347309,2.805221989710844.851012120554515,4.29208255102094.851012120554515,1.135011285759902,0,2.193937541140258-.19559694675263,3.176778766150164-.587565063466172.9827708410794-.391123509549288,1.901773839848829-.923085266835187,2.757712835649727-1.59405528960815.854320165350146-.671955397805505,1.657963899770039-1.446812104057244,2.409171604878793-2.325696261648773.751207705141496-.878884157611537,1.470531489130735-1.806051692470646,2.157900968031754-2.781502604631896l3.333031094969556,2.445982401268338c-.719323783980144,1.150566134701876-1.586735360680905,2.26185803543558-2.601460506841249,3.332186487785293-1.015499369388635,1.071173059532157-2.154663307139344,2.013895443362344-3.416506438188662,2.828941374737042-1.263461961490975.815820154621179-2.637426696030161,1.467293828251059-4.124357641290771,1.954209869094484-1.486015954140385.487619880190323-3.0613491178392.731500204206895-4.723324901719025.731500204206895-2.797057453581147,0-5.374728191431132-.407452581755933-7.732308374241256-1.222498513108803-2.357650566738812-.81511631529429-4.391957350349912-1.966456673248103-6.101442288269027-3.452613395254957-1.711103768340763-1.486790177401417-3.045020045639831-3.273275136798475-4.004071501671206-5.3591733424837-.959051456018642-2.085827821756538-1.438577184049791-4.407512199297344-1.438577184049791-6.964771596905848,0-2.477866322424234.454961735809775-4.755279206818159,1.366574421730547-6.832942492474103.910768078729234-2.077663285648669,2.193937541149353-3.872242397219452,3.847748788919489-5.382892727533545,1.65465585497077-1.510650330284989,3.636667377180856-2.689088502029335,5.945964182699754-3.536862961733277,2.310071028799939-.846929852508765,4.863248158340866-1.270781890378203,7.660305611931108-1.270781890378203,1.87066414193032,0,3.580993687030059.220090555018032,5.130847867400007.659497441858548,1.55076917147926.440321877942552,2.96154470240981,1.047453674482313,4.232396976729433,1.822451148589607,1.270852274330537.775701313454192,2.405018952920727,1.702165009000964,3.404259634060509,2.781502604628258.99917029720018,1.078563372393546,1.882136722839277,2.265095696318895,2.649673500180143,3.56044157893848l-3.35675048000121,2.349415646702255c-.687369478930123-.974535921031929-1.434494916009498-1.894313143062391-2.242220918438761-2.75764245170285-.80681101133996-.862625469326304-1.666058051931032-1.617845058592138-2.576896514599866-2.265236464163536-.911612685940781-.647250637732213-1.870664141961242-1.158730670826117-2.877224752010079-1.534369715353023-1.007334833309869-.375498276680446-2.053943900620652-.563775294487641-3.140671809120249-.563775294487641-1.486930945240601,0-2.905871012269927.279916897165094-4.256116361790191.838765316386343-1.35108995668088.559833794326551-2.537622280589858,1.38712652983304-3.560511962839882,2.48201897443505-1.022889682260939,1.094962828512507-1.838005997549772,2.449220062122549-2.445137794100447,4.06375707589541-.608046787649073,1.614607397737927-.911612685940781,3.477036619640785-.911612685940781,5.586654210392226Z"/>
          <path class="cls-1" d="M1086.047420759190572,672.344269749550222l15.248608461499316,33.182997380241432h-8.151303920829378l-4.076074263990449-8.871472312002879h-12.635745757699624l-4.267518558770462,8.871472312002879h-5.418929300660238l15.848420329120927-33.182997380241432h3.452543011329908ZM1077.943555608469978,693.635409148304461h9.782240390739389l-4.819117433038627-10.501564174719533-4.963122957700762,10.501564174719533Z"/>
          <path class="cls-1" d="M1135.313709649261,673.015239772326822h7.983579011119218v29.17892587854476h16.59230810534973v3.333101478920071h-24.575887116468948v-32.512027357464831Z"/>
        </g>
      </g>
    </g>
  </g>
</svg>