<svg width="200" height="203" viewBox="0 0 200 203" fill="none" xmlns="http://www.w3.org/2000/svg">
<path d="M3.50175 171.398C11.1177 189.983 23.5357 193.851 32.2666 189.983C49.1517 182.501 93.0133 174.143 138.061 193.791C197.724 219.814 210.418 180.552 191.377 140.837C172.335 101.123 165.881 60.9603 187.832 38.8331C209.783 16.706 181.058 -17.9088 130.045 18.1228C97.0789 41.4077 72.8853 36.2229 59.8935 29.6403C47.6491 23.4365 34.0318 16.9507 21.2738 22.0148C5.79327 28.1598 -0.306533 41.4825 23.2464 71.2455C56.6228 113.422 -13.5706 129.74 3.50175 171.398Z" fill="#E8CDED"/>
<path d="M34.5117 80.8643H153.04V172.02C153.04 172.205 152.966 172.383 152.835 172.514C152.704 172.646 152.526 172.72 152.34 172.72H35.2117C35.0261 172.72 34.848 172.646 34.7167 172.514C34.5855 172.383 34.5117 172.205 34.5117 172.02V80.8643Z" fill="#9E5FAB"/>
<path d="M123.305 45.1428H68.1919L34.5117 80.8642H153.04L123.305 45.1428Z" fill="#4B3572"/>
<path d="M45.7382 30.8541L68.1917 45.1428L34.5115 80.8642L8.99609 61.4725L45.7382 30.8541Z" fill="#865091"/>
<path d="M145.758 30.8541L123.305 45.1428L153.04 80.8642L182.5 61.4725L145.758 30.8541Z" fill="#865091"/>
<path d="M82.6713 31.5847C83.3049 31.2842 83.7979 30.7505 84.0472 30.0951C84.2965 29.4397 84.2829 28.7133 84.0091 28.0677L73.9083 4.24979C73.7652 3.91242 73.5554 3.60747 73.2914 3.35326C73.0275 3.09906 72.7149 2.90086 72.3724 2.77058C72.0299 2.6403 71.6645 2.58063 71.2984 2.59515C70.9322 2.60968 70.5728 2.69811 70.2417 2.85511L68.2957 3.77785C67.9645 3.93485 67.6686 4.15718 67.4256 4.43148C67.1826 4.70578 66.9976 5.02639 66.8817 5.37402C66.7658 5.72165 66.7214 6.08912 66.7512 6.45436C66.7809 6.81959 66.8842 7.17504 67.0548 7.49933L79.1016 30.3944C79.4281 31.015 79.9819 31.4853 80.6471 31.7072C81.3124 31.929 82.0376 31.8851 82.6713 31.5847Z" fill="#865091"/>
<path d="M95.3358 29.2757C95.7944 29.243 96.2226 29.0344 96.531 28.6934C96.8393 28.3525 97.0041 27.9055 96.9907 27.446L96.4918 10.4897C96.4847 10.2496 96.4291 10.0133 96.3284 9.79513C96.2277 9.57697 96.0839 9.38143 95.9057 9.22027C95.7274 9.0591 95.5185 8.93563 95.2913 8.85729C95.0642 8.77894 94.8235 8.74734 94.5838 8.76437L93.175 8.86475C92.9354 8.88181 92.7018 8.94713 92.4881 9.05678C92.2743 9.16644 92.085 9.31817 91.9314 9.50285C91.7778 9.68754 91.6632 9.90137 91.5943 10.1315C91.5255 10.3616 91.5038 10.6033 91.5308 10.842L93.4385 27.698C93.4901 28.155 93.7163 28.5743 94.0699 28.8683C94.4235 29.1623 94.8771 29.3083 95.3358 29.2757Z" fill="#865091"/>
<path d="M105.11 35.5438C106.372 36.2731 108.142 35.6039 109.125 34.0265L126.564 6.01909C127.605 4.34595 127.359 2.30671 126.021 1.53321L124.156 0.455212C122.818 -0.318428 120.927 0.48489 119.997 2.22243L104.423 31.3077C103.546 32.9458 103.849 34.8144 105.11 35.5438Z" fill="#865091"/>
</svg>
