<svg width="40" height="40" viewBox="0 0 40 40" fill="none" xmlns="http://www.w3.org/2000/svg">
<g clip-path="url(#clip0_368_5525)">
<path d="M15.8333 7.5C15.8333 5.19833 17.6983 3.33333 20 3.33333C22.3017 3.33333 24.1667 5.19833 24.1667 7.5C24.1667 9.80167 22.3017 11.6667 20 11.6667C17.6983 11.6667 15.8333 9.80167 15.8333 7.5ZM28.3333 20V25C28.3333 27.4567 26.9833 29.5833 25 30.74V38.3333C25 39.2533 24.2533 40 23.3333 40C22.4133 40 21.6667 39.2533 21.6667 38.3333V31.6667H18.3333V38.3333C18.3333 39.2533 17.5867 40 16.6667 40C15.7467 40 15 39.2533 15 38.3333V30.74C13.0167 29.5833 11.6667 27.4567 11.6667 25V20C11.6667 16.3233 14.6567 13.3333 18.3333 13.3333H21.6667C25.3433 13.3333 28.3333 16.3233 28.3333 20ZM8.33333 8.33333C10.635 8.33333 12.5 6.46833 12.5 4.16667C12.5 1.865 10.635 0 8.33333 0C6.03167 0 4.16667 1.865 4.16667 4.16667C4.16667 6.46833 6.03167 8.33333 8.33333 8.33333ZM31.6667 8.33333C33.9683 8.33333 35.8333 6.46833 35.8333 4.16667C35.8333 1.865 33.9683 0 31.6667 0C29.365 0 27.5 1.865 27.5 4.16667C27.5 6.46833 29.365 8.33333 31.6667 8.33333ZM33.3333 10H30C28.76 10 27.6133 10.3617 26.6183 10.9533C26.57 11.0467 26.52 11.14 26.4683 11.2317C29.565 12.9333 31.6683 16.225 31.6683 20V25C31.6683 26.15 31.455 27.275 31.0733 28.3333H33.335V35C33.335 35.92 34.0817 36.6667 35.0017 36.6667C35.9217 36.6667 36.6683 35.92 36.6683 35V27.4067C38.6517 26.25 40.0017 24.1233 40.0017 21.6667V16.6667C40.0017 12.99 37.01 10 33.3333 10ZM8.33333 25V20C8.33333 16.225 10.4367 12.9333 13.5333 11.2317C13.48 11.14 13.4317 11.0483 13.3833 10.9533C12.3883 10.3617 11.24 10 10.0017 10H6.66833C2.99 10 0 12.99 0 16.6667V21.6667C0 24.1233 1.35 26.25 3.33333 27.4067V35C3.33333 35.92 4.08 36.6667 5 36.6667C5.92 36.6667 6.66667 35.92 6.66667 35V28.3333H8.92833C8.54667 27.275 8.33333 26.15 8.33333 25Z" fill="url(#paint0_linear_368_5525)"/>
</g>
<defs>
<linearGradient id="paint0_linear_368_5525" x1="3.08398" y1="-13.214" x2="65.1788" y2="22.1669" gradientUnits="userSpaceOnUse">
<stop stop-color="#13405B"/>
<stop offset="0.65" stop-color="#784791"/>
<stop offset="1" stop-color="#DD9C36"/>
</linearGradient>
<clipPath id="clip0_368_5525">
<rect width="40" height="40" fill="white"/>
</clipPath>
</defs>
</svg>
