<svg width="40" height="40" viewBox="0 0 40 40" fill="none" xmlns="http://www.w3.org/2000/svg">
<g clip-path="url(#clip0_368_5511)">
<path d="M9.77907 25.972C8.0213 24.3483 6.68054 22.3251 5.87027 20.0736C5.05999 17.822 4.80403 15.4084 5.12407 13.037C5.44051 10.6324 6.33529 8.34046 7.73171 6.35752C9.12814 4.37458 10.9846 2.75981 13.1419 1.65161C15.2992 0.543419 17.693 -0.0251491 20.1182 -0.00535994C22.5434 0.0144292 24.9277 0.621986 27.0666 1.76524C29.2056 2.90849 31.0354 4.55333 32.3993 6.5588C33.7631 8.56426 34.6204 10.8705 34.8976 13.2799C35.1747 15.6893 34.8635 18.13 33.9906 20.3928C33.1178 22.6556 31.7092 24.6729 29.8857 26.272C28.7115 27.2815 27.7999 28.5609 27.2291 30.0003H21.6657V18.027C22.6372 17.6835 23.4789 17.0483 24.0756 16.2082C24.6723 15.368 24.9948 14.3641 24.9991 13.3337C24.9991 12.8916 24.8235 12.4677 24.5109 12.1551C24.1983 11.8426 23.7744 11.667 23.3324 11.667C22.8904 11.667 22.4664 11.8426 22.1539 12.1551C21.8413 12.4677 21.6657 12.8916 21.6657 13.3337C21.6657 13.7757 21.4901 14.1996 21.1776 14.5122C20.865 14.8247 20.4411 15.0003 19.9991 15.0003C19.557 15.0003 19.1331 14.8247 18.8206 14.5122C18.508 14.1996 18.3324 13.7757 18.3324 13.3337C18.3324 12.8916 18.1568 12.4677 17.8442 12.1551C17.5317 11.8426 17.1078 11.667 16.6657 11.667C16.2237 11.667 15.7998 11.8426 15.4872 12.1551C15.1747 12.4677 14.9991 12.8916 14.9991 13.3337C15.0033 14.3641 15.3259 15.368 15.9225 16.2082C16.5192 17.0483 17.3609 17.6835 18.3324 18.027V30.0003H12.6041C11.9669 28.4679 11.0028 27.0931 9.77907 25.972ZM13.3324 33.3337V33.8503C13.3342 35.4809 13.9827 37.0441 15.1356 38.1971C16.2886 39.3501 17.8519 39.9986 19.4824 40.0003H20.5157C22.1463 39.9986 23.7095 39.3501 24.8625 38.1971C26.0155 37.0441 26.664 35.4809 26.6657 33.8503V33.3337H13.3324Z" fill="url(#paint0_linear_368_5511)"/>
</g>
<defs>
<linearGradient id="paint0_linear_368_5511" x1="7.30355" y1="-13.2219" x2="59.4758" y2="9.07327" gradientUnits="userSpaceOnUse">
<stop stop-color="#13405B"/>
<stop offset="0.65" stop-color="#784791"/>
<stop offset="1" stop-color="#DD9C36"/>
</linearGradient>
<clipPath id="clip0_368_5511">
<rect width="40" height="40" fill="white"/>
</clipPath>
</defs>
</svg>
