<svg width="40" height="40" viewBox="0 0 40 40" fill="none" xmlns="http://www.w3.org/2000/svg">
<g clip-path="url(#clip0_368_5518)">
<path d="M12.8774 5.07143L13.909 3.40476C14.5601 2.37836 15.46 1.5331 16.5251 0.947438C17.5902 0.361773 18.786 0.0546875 20.0015 0.0546875C21.217 0.0546875 22.4128 0.361773 23.4779 0.947438C24.543 1.5331 25.4429 2.37836 26.094 3.40476L29.6457 9.05143L31.909 7.50643C32.3172 7.22784 32.7987 7.07647 33.2929 7.07142C33.787 7.06637 34.2716 7.20788 34.6853 7.47807C35.0991 7.74826 35.4235 8.13501 35.6175 8.58947C35.8116 9.04393 35.8666 9.54571 35.7757 10.0314L34.549 16.6031C34.4067 17.3675 34.0023 18.0584 33.4054 18.5567C32.8085 19.055 32.0566 19.3296 31.279 19.3331C31.0624 19.3331 24.1124 17.9864 24.1124 17.9864C23.6291 17.8911 23.1849 17.6551 22.8353 17.3081C22.4857 16.9612 22.2464 16.5187 22.1474 16.0362C22.0484 15.5537 22.0941 15.0527 22.2789 14.5961C22.4636 14.1395 22.7791 13.7477 23.1857 13.4698L25.5107 11.8814L21.844 6.05976C21.6509 5.74672 21.3813 5.48799 21.0606 5.30794C20.7399 5.1279 20.3786 5.03246 20.0108 5.03063C19.643 5.02879 19.2808 5.12062 18.9583 5.29746C18.6358 5.4743 18.3636 5.73033 18.1674 6.04143L17.1324 7.70809C16.9592 7.98748 16.7328 8.23003 16.4659 8.4219C16.199 8.61377 15.897 8.75119 15.577 8.82633C15.2571 8.90147 14.9254 8.91285 14.601 8.85982C14.2767 8.80679 13.9659 8.69039 13.6865 8.51726C13.4071 8.34413 13.1646 8.11767 12.9727 7.85081C12.7809 7.58394 12.6434 7.2819 12.5683 6.96193C12.4932 6.64195 12.4818 6.31031 12.5348 5.98594C12.5878 5.66156 12.7042 5.35081 12.8774 5.07143ZM38.9224 24.1031L37.959 22.5514C37.788 22.2685 37.5625 22.0222 37.2957 21.827C37.0289 21.6318 36.726 21.4914 36.4045 21.414C36.0831 21.3366 35.7495 21.3238 35.423 21.3762C35.0966 21.4287 34.7838 21.5453 34.5027 21.7195C34.2217 21.8936 33.978 22.1218 33.7857 22.3907C33.5934 22.6597 33.4564 22.9642 33.3826 23.2864C33.3088 23.6087 33.2996 23.9425 33.3556 24.2683C33.4117 24.5942 33.5318 24.9056 33.709 25.1848L34.6724 26.7381C34.8733 27.0647 34.9834 27.439 34.9912 27.8224C34.9991 28.2058 34.9044 28.5843 34.717 28.9188C34.5296 29.2534 34.2562 29.5318 33.9252 29.7253C33.5942 29.9189 33.2175 30.0205 32.834 30.0198H25.0007V27.4998C25.0014 27.0126 24.8597 26.5359 24.5931 26.1282C24.3265 25.7205 23.9467 25.3996 23.5002 25.2048C23.0537 25.0101 22.56 24.95 22.0798 25.032C21.5997 25.114 21.1539 25.3345 20.7974 25.6664L16.1674 29.9864C15.8108 30.2946 15.5236 30.6748 15.3247 31.1021C15.1259 31.5293 15.0199 31.9939 15.0137 32.4651C15.0076 32.9364 15.1014 33.4036 15.2891 33.8359C15.4767 34.2682 15.7539 34.6558 16.1024 34.9731L20.799 39.3331C21.1557 39.6644 21.6013 39.8845 22.0811 39.9662C22.561 40.0478 23.0543 39.9877 23.5005 39.793C23.9467 39.5983 24.3263 39.2776 24.5928 38.8702C24.8593 38.4629 25.0011 37.9866 25.0007 37.4998V35.0198H32.834C34.1091 35.0218 35.3616 34.683 36.4618 34.0385C37.562 33.3939 38.4699 32.4669 39.0914 31.3536C39.713 30.2403 40.0258 28.981 39.9972 27.7062C39.9686 26.4315 39.5999 25.1875 38.929 24.1031H38.9224ZM13.5007 13.9681C13.4174 13.5359 13.2497 13.1244 13.0072 12.7572C12.7647 12.3899 12.4521 12.0741 12.0874 11.8277C11.7227 11.5814 11.3129 11.4095 10.8816 11.3218C10.4504 11.234 10.006 11.2322 9.57403 11.3164L3.06403 12.5981C2.58038 12.6931 2.13563 12.9291 1.78567 13.2761C1.43571 13.6232 1.19616 14.066 1.09713 14.5489C0.998102 15.0317 1.04402 15.5331 1.2291 15.9899C1.41418 16.4467 1.73018 16.8387 2.13736 17.1164L4.43736 18.6864L1.0807 24.1031C0.401488 25.1817 0.0273111 26.4241 -0.00203635 27.6984C-0.0313838 28.9727 0.285195 30.2311 0.91403 31.3398C1.53095 32.4649 2.44172 33.4015 3.54919 34.0496C4.65665 34.6977 5.91927 35.033 7.20236 35.0198L9.19236 34.9998C9.8554 34.9931 10.4887 34.7234 10.9528 34.2498C11.417 33.7763 11.674 33.1378 11.6674 32.4748C11.6607 31.8117 11.391 31.1785 10.9175 30.7143C10.4439 30.2502 9.8054 29.9931 9.14236 29.9998L7.16736 30.0198C6.78408 30.0198 6.40773 29.9176 6.07717 29.7236C5.7466 29.5296 5.47381 29.2509 5.28695 28.9162C5.10009 28.5816 5.00594 28.2031 5.01421 27.8199C5.02249 27.4367 5.1329 27.0627 5.33403 26.7364L8.57403 21.5098L10.8607 23.0714C11.2687 23.3498 11.7501 23.5011 12.244 23.5062C12.738 23.5113 13.2223 23.3699 13.636 23.1C14.0497 22.83 14.3741 22.4436 14.5683 21.9894C14.7626 21.5352 14.8179 21.0337 14.7274 20.5481L13.5007 13.9681Z" fill="url(#paint0_linear_368_5518)"/>
</g>
<defs>
<linearGradient id="paint0_linear_368_5518" x1="3.08017" y1="-13.1417" x2="65.1355" y2="22.2647" gradientUnits="userSpaceOnUse">
<stop stop-color="#13405B"/>
<stop offset="0.65" stop-color="#784791"/>
<stop offset="1" stop-color="#DD9C36"/>
</linearGradient>
<clipPath id="clip0_368_5518">
<rect width="40" height="40" fill="white"/>
</clipPath>
</defs>
</svg>
