<svg width="41" height="40" viewBox="0 0 41 40" fill="none" xmlns="http://www.w3.org/2000/svg">
<g clip-path="url(#clip0_367_7099)">
<path d="M5.33399 10C5.33399 4.485 9.82065 0 15.334 0C20.8473 0 25.334 4.485 25.334 10C25.334 15.515 20.849 20 15.334 20C9.81899 20 5.33399 15.515 5.33399 10ZM40.334 30C40.334 35.5233 35.8573 40 30.334 40C24.8107 40 20.334 35.5233 20.334 30C20.334 24.4767 24.8107 20 30.334 20C35.8573 20 40.334 24.4767 40.334 30ZM36.5207 27.1633C35.8823 26.4983 34.8257 26.48 34.164 27.115L29.6423 31.4883C29.404 31.7233 29.0107 31.7283 28.7723 31.4917L26.5157 29.2733C25.8557 28.6267 24.8023 28.6383 24.159 29.2967C23.514 29.955 23.524 31.0083 24.1823 31.6533L26.439 33.8733C27.2057 34.6217 28.209 34.9967 29.2107 34.9967C30.2123 34.9967 31.2123 34.6217 31.9657 33.8783L36.4707 29.5217C37.134 28.8833 37.1557 27.8283 36.519 27.165L36.5207 27.1633ZM17.0007 30C17.0007 27.72 17.5757 25.575 18.584 23.6983C17.5357 23.465 16.4507 23.3333 15.334 23.3333C7.07399 23.3333 0.350654 30.0467 0.333987 38.305C0.332321 39.2333 1.07232 40 2.00065 40H21.5357C18.7607 37.5567 17.0007 33.9883 17.0007 30Z" fill="url(#paint0_linear_367_7099)"/>
</g>
<defs>
<linearGradient id="paint0_linear_367_7099" x1="3.41783" y1="-13.214" x2="65.5113" y2="22.1647" gradientUnits="userSpaceOnUse">
<stop stop-color="#13405B"/>
<stop offset="0.65" stop-color="#784791"/>
<stop offset="1" stop-color="#DD9C36"/>
</linearGradient>
<clipPath id="clip0_367_7099">
<rect width="40" height="40" fill="white" transform="translate(0.333984)"/>
</clipPath>
</defs>
</svg>
