<svg width="17" height="16" viewBox="0 0 17 16" fill="none" xmlns="http://www.w3.org/2000/svg">
<g clip-path="url(#clip0_725_5838)">
<path d="M0.332031 12.667C0.33309 13.5507 0.684619 14.398 1.30951 15.0228C1.9344 15.6477 2.78163 15.9993 3.66536 16.0003H12.9987C13.8824 15.9993 14.7297 15.6477 15.3546 15.0228C15.9794 14.398 16.331 13.5507 16.332 12.667V6.66699H0.332031V12.667ZM11.6654 9.66699C11.8631 9.66699 12.0565 9.72564 12.2209 9.83552C12.3854 9.9454 12.5136 10.1016 12.5892 10.2843C12.6649 10.467 12.6847 10.6681 12.6462 10.8621C12.6076 11.0561 12.5123 11.2342 12.3725 11.3741C12.2326 11.514 12.0544 11.6092 11.8605 11.6478C11.6665 11.6864 11.4654 11.6666 11.2827 11.5909C11.1 11.5152 10.9438 11.387 10.8339 11.2226C10.724 11.0581 10.6654 10.8648 10.6654 10.667C10.6654 10.4018 10.7707 10.1474 10.9583 9.95989C11.1458 9.77235 11.4001 9.66699 11.6654 9.66699ZM8.33203 9.66699C8.52981 9.66699 8.72315 9.72564 8.8876 9.83552C9.05205 9.9454 9.18022 10.1016 9.25591 10.2843C9.3316 10.467 9.3514 10.6681 9.31282 10.8621C9.27423 11.0561 9.17899 11.2342 9.03914 11.3741C8.89929 11.514 8.7211 11.6092 8.52712 11.6478C8.33314 11.6864 8.13207 11.6666 7.94935 11.5909C7.76662 11.5152 7.61044 11.387 7.50056 11.2226C7.39068 11.0581 7.33203 10.8648 7.33203 10.667C7.33203 10.4018 7.43739 10.1474 7.62492 9.95989C7.81246 9.77235 8.06681 9.66699 8.33203 9.66699ZM4.9987 9.66699C5.19648 9.66699 5.38982 9.72564 5.55427 9.83552C5.71872 9.9454 5.84689 10.1016 5.92258 10.2843C5.99827 10.467 6.01807 10.6681 5.97948 10.8621C5.9409 11.0561 5.84566 11.2342 5.7058 11.3741C5.56595 11.514 5.38777 11.6092 5.19379 11.6478C4.99981 11.6864 4.79874 11.6666 4.61601 11.5909C4.43329 11.5152 4.27711 11.387 4.16723 11.2226C4.05735 11.0581 3.9987 10.8648 3.9987 10.667C3.9987 10.4018 4.10405 10.1474 4.29159 9.95989C4.47913 9.77235 4.73348 9.66699 4.9987 9.66699Z" fill="url(#paint0_linear_725_5838)"/>
<path d="M12.9987 1.33333H12.332V0.666667C12.332 0.489856 12.2618 0.320286 12.1368 0.195262C12.0117 0.0702379 11.8422 0 11.6654 0C11.4886 0 11.319 0.0702379 11.194 0.195262C11.0689 0.320286 10.9987 0.489856 10.9987 0.666667V1.33333H5.66536V0.666667C5.66536 0.489856 5.59513 0.320286 5.4701 0.195262C5.34508 0.0702379 5.17551 0 4.9987 0C4.82189 0 4.65232 0.0702379 4.52729 0.195262C4.40227 0.320286 4.33203 0.489856 4.33203 0.666667V1.33333H3.66536C2.78163 1.33439 1.9344 1.68592 1.30951 2.31081C0.684619 2.93571 0.33309 3.78294 0.332031 4.66667L0.332031 5.33333H16.332V4.66667C16.331 3.78294 15.9794 2.93571 15.3546 2.31081C14.7297 1.68592 13.8824 1.33439 12.9987 1.33333Z" fill="url(#paint1_linear_725_5838)"/>
</g>
<defs>
<linearGradient id="paint0_linear_725_5838" x1="1.56557" y1="3.58374" x2="18.4029" y2="20.0294" gradientUnits="userSpaceOnUse">
<stop stop-color="#13405B"/>
<stop offset="0.65" stop-color="#784791"/>
<stop offset="1" stop-color="#DD9C36"/>
</linearGradient>
<linearGradient id="paint1_linear_725_5838" x1="1.56557" y1="-1.76186" x2="9.95493" y2="12.578" gradientUnits="userSpaceOnUse">
<stop stop-color="#13405B"/>
<stop offset="0.65" stop-color="#784791"/>
<stop offset="1" stop-color="#DD9C36"/>
</linearGradient>
<clipPath id="clip0_725_5838">
<rect width="16" height="16" fill="white" transform="translate(0.332031)"/>
</clipPath>
</defs>
</svg>
