<svg width="48" height="49" viewBox="0 0 48 49" fill="none" xmlns="http://www.w3.org/2000/svg">
<g clip-path="url(#clip0_1232_646)">
<path d="M24.024 16.4988C23 16.4988 21.976 16.1088 21.196 15.3288L17.22 11.3528C15.66 9.79283 15.66 7.25483 17.22 5.69483L21.196 1.71883C22.754 0.158828 25.294 0.158828 26.852 1.71883L30.828 5.69483C32.388 7.25483 32.388 9.79283 30.828 11.3528L26.852 15.3288C26.072 16.1088 25.048 16.4988 24.024 16.4988ZM19.418 25.6008C17.404 23.7328 14.098 24.1048 12.594 26.5968C11.618 28.2168 11.894 30.3068 13.084 31.7748L16.66 36.3828C17.338 37.2548 17.18 38.5108 16.306 39.1888C15.434 39.8668 14.178 39.7088 13.5 38.8348L9.92395 34.2268C7.67995 31.4608 7.35395 27.5368 9.16795 24.5308C9.41395 24.1228 9.69995 23.7488 10.002 23.3948V11.7088C10.002 9.09283 8.11995 6.71083 5.51795 6.44883C2.52595 6.14883 0.00195312 8.49083 0.00195312 11.4228V32.5168C0.00195312 36.7848 1.70795 40.8768 4.73995 43.8828L8.32395 47.4328C9.06395 48.1188 10.034 48.4988 11.044 48.4988H26.002C27.106 48.4988 28.002 47.6028 28.002 46.4988V38.8588C28.002 35.5488 26.634 32.3848 24.222 30.1168L19.418 25.6008ZM42.484 6.45083C39.882 6.71083 38 9.09483 38 11.7108V23.3988C38.302 23.7528 38.586 24.1248 38.834 24.5348C40.646 27.5408 40.322 31.4648 38.078 34.2308L32.002 40.2788V46.5028C32.002 47.2068 31.858 47.8748 31.634 48.5028H36.962C37.97 48.5028 38.942 48.1228 39.682 47.4368L43.262 43.8928C46.296 40.8888 48.004 36.7948 48.004 32.5228V11.4248C48.004 8.49283 45.482 6.15083 42.488 6.45083H42.484ZM35.408 26.5988C33.904 24.1068 30.598 23.7348 28.584 25.6028L26.92 27.1668L26.96 27.2048C29.242 29.3508 30.802 32.1328 31.526 35.1408L34.916 31.7768C36.106 30.3088 36.382 28.2168 35.406 26.5988H35.408Z" fill="#F9FAFB"/>
</g>
<defs>
<clipPath id="clip0_1232_646">
<rect width="48" height="48" fill="white" transform="translate(0 0.5)"/>
</clipPath>
</defs>
</svg>
