<svg width="48" height="49" viewBox="0 0 48 49" fill="none" xmlns="http://www.w3.org/2000/svg">
<g clip-path="url(#clip0_1232_658)">
<path d="M19 9.5C19 6.738 21.238 4.5 24 4.5C26.762 4.5 29 6.738 29 9.5C29 12.262 26.762 14.5 24 14.5C21.238 14.5 19 12.262 19 9.5ZM34 24.5V30.5C34 33.448 32.38 36 30 37.388V46.5C30 47.604 29.104 48.5 28 48.5C26.896 48.5 26 47.604 26 46.5V38.5H22V46.5C22 47.604 21.104 48.5 20 48.5C18.896 48.5 18 47.604 18 46.5V37.388C15.62 36 14 33.448 14 30.5V24.5C14 20.088 17.588 16.5 22 16.5H26C30.412 16.5 34 20.088 34 24.5ZM10 10.5C12.762 10.5 15 8.262 15 5.5C15 2.738 12.762 0.5 10 0.5C7.238 0.5 5 2.738 5 5.5C5 8.262 7.238 10.5 10 10.5ZM38 10.5C40.762 10.5 43 8.262 43 5.5C43 2.738 40.762 0.5 38 0.5C35.238 0.5 33 2.738 33 5.5C33 8.262 35.238 10.5 38 10.5ZM40 12.5H36C34.512 12.5 33.136 12.934 31.942 13.644C31.884 13.756 31.824 13.868 31.762 13.978C35.478 16.02 38.002 19.97 38.002 24.5V30.5C38.002 31.88 37.746 33.23 37.288 34.5H40.002V42.5C40.002 43.604 40.898 44.5 42.002 44.5C43.106 44.5 44.002 43.604 44.002 42.5V33.388C46.382 32 48.002 29.448 48.002 26.5V20.5C48.002 16.088 44.412 12.5 40 12.5ZM10 30.5V24.5C10 19.97 12.524 16.02 16.24 13.978C16.176 13.868 16.118 13.758 16.06 13.644C14.866 12.934 13.488 12.5 12.002 12.5H8.002C3.588 12.5 0 16.088 0 20.5V26.5C0 29.448 1.62 32 4 33.388V42.5C4 43.604 4.896 44.5 6 44.5C7.104 44.5 8 43.604 8 42.5V34.5H10.714C10.256 33.23 10 31.88 10 30.5Z" fill="#F9FAFB"/>
</g>
<defs>
<clipPath id="clip0_1232_658">
<rect width="48" height="48" fill="white" transform="translate(0 0.5)"/>
</clipPath>
</defs>
</svg>
