<svg width="40" height="40" viewBox="0 0 40 40" fill="none" xmlns="http://www.w3.org/2000/svg">
<g clip-path="url(#clip0_368_5563)">
<path d="M10 22.805L2.995 15.8C1.81167 14.6167 1.255 13.0617 1.07333 11.5217C0.386667 10.835 0 9.90169 0 8.93002V2.70002C0 1.15836 1.3 -0.0799765 2.865 0.0233568C3.53167 0.0666901 4.15167 0.37669 4.625 0.848357L7.13667 3.35169H17.9617C19.045 3.35169 19.995 4.23669 20 5.31836C20.0033 5.86002 19.7833 6.35169 19.4283 6.70669C19.075 7.06002 18.5883 7.27836 18.05 7.27836H15.685L20.1717 11.765C18.8117 11.9484 17.6117 12.6467 16.825 13.6967C16.055 13.395 15.1933 13.2767 14.2917 13.4C11.8083 13.7434 9.99833 15.9384 9.99833 18.445L10 22.805ZM36.6767 0.00669015L34.3567 2.34823e-05C33.4683 -0.00330985 32.6167 0.348357 31.9883 0.97669L30.255 2.71002C28.715 2.89002 27.16 3.44836 25.9767 4.63169C25.9767 4.63169 22.2133 8.60002 21.9783 8.85836L30.3217 17.2017C31.465 18.3484 31.4633 20.3584 31.4633 20.3584L34.4983 17.3234V19.6884C34.4983 20.2267 34.7167 20.7134 35.0683 21.0667C35.42 21.42 35.9083 21.6384 36.4467 21.6384C37.5233 21.6384 38.3967 20.765 38.3967 19.6884L38.3333 8.77336L38.7783 8.32836C39.56 7.54669 39.9983 6.48669 39.9983 5.38169V3.34002C40 1.50336 38.5133 0.0133568 36.6767 0.00669015ZM26.6667 18.35C25.7467 18.35 25 19.0967 25 20.0167V25.4334C25 26.1234 24.44 26.6834 23.75 26.6834C23.06 26.6834 22.5 26.1234 22.5 25.4334V16.6834C22.5 15.7634 21.7533 15.0167 20.8333 15.0167C19.9133 15.0167 19.1667 15.7634 19.1667 16.6834V25.4334C19.1667 26.1234 18.6067 26.6834 17.9167 26.6834C17.2267 26.6834 16.6667 26.1234 16.6667 25.4334V18.35C16.6667 17.43 15.92 16.6834 15 16.6834C14.08 16.6834 13.3333 17.43 13.3333 18.35V30.5934L11.6617 28.9217C11.2817 28.5417 10.7817 28.35 10.2833 28.35C9.785 28.35 9.285 28.54 8.905 28.9217C8.14333 29.6834 8.14333 30.9167 8.905 31.6784L15.5167 38.1234C16.7617 39.3367 18.4317 40.0167 20.17 40.0167H25C25.92 40.0167 26.6667 39.27 26.6667 38.35V37.7167C27.6917 36.545 28.3333 35.0284 28.3333 33.35V20.0184C28.3333 19.0984 27.5867 18.35 26.6667 18.35Z" fill="url(#paint0_linear_368_5563)"/>
</g>
<defs>
<linearGradient id="paint0_linear_368_5563" x1="3.08372" y1="-13.2195" x2="65.1886" y2="22.1494" gradientUnits="userSpaceOnUse">
<stop stop-color="#13405B"/>
<stop offset="0.65" stop-color="#784791"/>
<stop offset="1" stop-color="#DD9C36"/>
</linearGradient>
<clipPath id="clip0_368_5563">
<rect width="40" height="40" fill="white"/>
</clipPath>
</defs>
</svg>
