<svg width="48" height="48" viewBox="0 0 48 48" fill="none" xmlns="http://www.w3.org/2000/svg">
<g clip-path="url(#clip0_1232_640)">
<path d="M28.8963 24.9791C28.8963 27.6835 26.7049 29.8749 24.0004 29.8749C21.296 29.8749 19.1046 27.6835 19.1046 24.9791C19.1046 22.2746 21.296 20.0832 24.0004 20.0832C26.7049 20.0832 28.8963 22.2746 28.8963 24.9791ZM46.2471 22.5723C44.9154 21.6382 43.0844 21.9632 42.1562 23.2929L37.6402 29.7437C36.7257 31.0519 35.2256 31.8313 33.6296 31.8313H14.3713C12.7753 31.8313 11.2752 31.0519 10.3606 29.7437L5.84473 23.2929C4.91452 21.9632 3.08348 21.6382 1.75377 22.5723C0.424064 23.5025 0.100939 25.3335 1.03115 26.6632L5.54706 33.114C7.56023 35.9908 10.86 37.7082 14.3713 37.7082H16.1671V44.5624C16.1671 46.1839 17.4811 47.4999 19.1046 47.4999C20.7281 47.4999 22.0421 46.1839 22.0421 44.5624V37.7082H25.9588V44.5624C25.9588 46.1839 27.2728 47.4999 28.8963 47.4999C30.5197 47.4999 31.8338 46.1839 31.8338 44.5624V37.7082H33.6296C37.1409 37.7082 40.4407 35.9908 42.4538 33.114L46.9697 26.6632C47.8999 25.3335 47.5768 23.5025 46.2471 22.5723ZM19.1046 12.2499H22.0421V13.7735C22.0421 15.0307 23.4717 15.6594 24.3079 14.7703L28.5066 10.3092C29.0255 9.7589 29.0255 8.8659 28.5066 8.31365L24.3079 3.85257C23.4717 2.96349 22.0421 3.59407 22.0421 4.84936V6.37294H19.1046C17.4811 6.37294 16.1671 7.68894 16.1671 9.31044C16.1671 10.9319 17.4811 12.2499 19.1046 12.2499ZM6.37544 18.1249H8.33377C9.41477 18.1249 10.2921 17.2476 10.2921 16.1666V14.2082H4.41711V16.1666C4.41711 17.2476 5.29444 18.1249 6.37544 18.1249ZM3.43794 12.2499H11.2713C13.2296 11.2707 14.2088 9.23211 14.2088 7.35407C14.2088 5.25278 13.2649 3.2964 11.6179 1.98432C9.97094 0.676152 7.83244 0.200277 5.7429 0.683986C3.24602 1.26169 1.25831 3.2494 0.682564 5.74824C0.126398 8.1609 1.47961 11.2707 3.43794 12.2499ZM30.9212 12.5064L32.0335 11.8641C31.9141 11.3569 31.8338 10.834 31.8338 10.2916C31.8338 9.74911 31.9141 9.22428 32.0335 8.71707L30.9212 8.07669C29.9831 7.53815 29.662 6.33965 30.2025 5.40357C30.741 4.46553 31.9356 4.14044 32.8776 4.68486L33.9899 5.32524C34.7556 4.60065 35.6917 4.06799 36.7276 3.75661V2.45824C36.7276 1.37528 37.605 0.499902 38.686 0.499902C39.767 0.499902 40.6443 1.37528 40.6443 2.45824V3.75661C41.6803 4.06799 42.6164 4.60065 43.3821 5.32524L44.4944 4.6829C45.4305 4.14044 46.629 4.46553 47.1695 5.39965C47.71 6.33769 47.3888 7.53424 46.4508 8.07474L45.3404 8.71511C45.4599 9.22232 45.5401 9.74519 45.5401 10.2896C45.5401 10.834 45.4599 11.3569 45.3404 11.8641L46.4527 12.5045C47.3908 13.043 47.7119 14.2415 47.1714 15.1776C46.8092 15.8062 46.1511 16.1587 45.4736 16.1587C45.1426 16.1587 44.8058 16.0745 44.4964 15.8963L43.384 15.2559C42.6183 15.9805 41.6822 16.5132 40.6463 16.8246V18.1229C40.6463 19.2059 39.7689 20.0813 38.6879 20.0813C37.6069 20.0813 36.7296 19.2059 36.7296 18.1229V16.8246C35.6936 16.5132 34.7576 15.9805 33.9919 15.2559L32.8815 15.8983C32.5721 16.0765 32.2352 16.1607 31.9043 16.1607C31.2267 16.1607 30.5687 15.8082 30.2064 15.1815C29.6659 14.2435 29.9851 13.0469 30.9212 12.5064ZM35.7504 10.2916C35.7504 11.9111 37.0684 13.2291 38.6879 13.2291C40.3075 13.2291 41.6254 11.9111 41.6254 10.2916C41.6254 8.67203 40.3075 7.35407 38.6879 7.35407C37.0684 7.35407 35.7504 8.67203 35.7504 10.2916Z" fill="#F9FAFB"/>
</g>
<defs>
<clipPath id="clip0_1232_640">
<rect width="47" height="47" fill="white" transform="translate(0.5 0.5)"/>
</clipPath>
</defs>
</svg>
