<svg width="24" height="24" viewBox="0 0 24 24" fill="none" xmlns="http://www.w3.org/2000/svg">
<path d="M22.4172 4.39315L21.2011 5.60518L18.3825 2.79605L19.5177 1.66469C20.2545 0.930322 21.4568 0.789132 22.2636 1.44741C23.1918 2.20378 23.2424 3.57076 22.4163 4.39407L22.4172 4.39315ZM17.0818 4.09243L12.21 8.94791C11.4622 9.69328 11.0427 10.7036 11.0427 11.757V12.4621C11.0427 12.7151 11.2487 12.9205 11.5026 12.9205H12.21C13.267 12.9205 14.2807 12.5015 15.0286 11.757L19.9004 6.90157L17.0818 4.09243ZM20.4919 13.7319L20.077 13.4935C20.1708 12.9947 20.2177 12.496 20.2177 12.0037C20.2177 11.5113 20.1708 11.0126 20.077 10.5138L19.8102 9.58326L16.3293 13.0525C15.2291 14.149 13.7665 14.7532 12.21 14.7532H11.5017C10.2332 14.7532 9.20196 13.7255 9.20196 12.4612V11.7552C9.20196 10.2049 9.80817 8.74712 10.9084 7.64969L14.6974 3.87331V3.75046C14.6974 2.23404 13.4592 1 11.9377 1C10.4162 1 9.17804 2.23404 9.17804 3.75046V4.22904C8.21491 4.56826 7.32353 5.08076 6.54989 5.74087L6.13594 5.50342C5.49845 5.13852 4.75517 5.04134 4.04133 5.23295C3.33025 5.42365 2.73599 5.88023 2.36896 6.5165C2.001 7.15278 1.90441 7.89448 2.09667 8.6041C2.288 9.3128 2.74611 9.90507 3.38544 10.2718L3.80032 10.5093C3.70649 11.008 3.65957 11.5068 3.65957 12C3.65957 12.4932 3.70649 12.992 3.80032 13.4907L3.38544 13.7282C2.74611 14.0949 2.28892 14.6872 2.09667 15.3959C1.90441 16.1055 2.001 16.8472 2.36804 17.4826C2.73507 18.1198 3.32933 18.5763 4.04133 18.767C4.75517 18.9596 5.49845 18.8624 6.13594 18.4966L6.54989 18.2591C7.32353 18.9202 8.21491 19.4317 9.17804 19.771V20.2495C9.17804 21.766 10.4162 23 11.9377 23C13.4592 23 14.6974 21.766 14.6974 20.2495V19.771C15.6606 19.4317 16.5519 18.9192 17.3256 18.2591L17.7395 18.4966C18.3789 18.8624 19.1221 18.9596 19.8341 18.767C20.5452 18.5763 21.1395 18.1198 21.5074 17.4826C22.2664 16.1679 21.8101 14.4837 20.491 13.7273L20.4919 13.7319Z" fill="url(#paint0_linear_368_3929)"/>
<defs>
<linearGradient id="paint0_linear_368_3929" x1="11.6746" y1="-2.38021" x2="27.7822" y2="2.76566" gradientUnits="userSpaceOnUse">
<stop stop-color="#FCCC2C"/>
<stop offset="1" stop-color="#FD7505"/>
</linearGradient>
</defs>
</svg>
