<svg width="17" height="16" viewBox="0 0 17 16" fill="none" xmlns="http://www.w3.org/2000/svg">
<g clip-path="url(#clip0_368_3786)">
<path d="M15.3955 4.91399C15.0255 5.31266 14.0028 6.36532 12.5162 7.51199C10.9575 8.71466 9.19218 9.68399 9.11751 9.72466C9.01818 9.77932 8.90818 9.80666 8.79818 9.80666C8.68818 9.80666 8.57818 9.77932 8.47818 9.72466C8.40418 9.68399 6.63884 8.71466 5.07951 7.51199C3.59284 6.36532 2.57018 5.31266 2.19951 4.91332L1.80684 4.49332C1.62751 5.41799 1.46484 6.63399 1.46484 8.00066C1.46484 10.9727 2.23551 13.2353 2.26884 13.33C2.34351 13.546 2.52418 13.7087 2.74684 13.7607C2.86551 13.7887 5.69351 14.4427 8.79884 14.4427C12.0115 14.4427 14.7415 13.7873 14.8562 13.7593C15.0762 13.706 15.2535 13.5447 15.3282 13.3307C15.3608 13.2367 16.1322 10.9907 16.1322 7.99999C16.1322 6.62199 15.9708 5.40932 15.7928 4.48999L15.3968 4.91399H15.3955Z" fill="url(#paint0_linear_368_3786)"/>
<path d="M3.17693 4.00468C3.44959 4.29801 4.44826 5.33935 5.89559 6.45535C6.99293 7.30201 8.22893 8.04335 8.79959 8.37268C9.37026 8.04268 10.6089 7.30068 11.7029 6.45601C13.1509 5.34001 14.1489 4.29868 14.4203 4.00601L15.4156 2.94135C15.3663 2.77935 15.3336 2.68468 15.3276 2.66735C15.2529 2.45468 15.0756 2.29468 14.8569 2.24135C14.7423 2.21335 12.0189 1.55801 8.79893 1.55801C5.63626 1.55801 2.86093 2.21268 2.74426 2.24068C2.52226 2.29401 2.34359 2.45601 2.26959 2.67135C2.26359 2.68935 2.23159 2.78268 2.18359 2.94268L3.17693 4.00601V4.00468Z" fill="url(#paint1_linear_368_3786)"/>
</g>
<defs>
<linearGradient id="paint0_linear_368_3786" x1="2.59564" y1="1.20214" x2="20.2844" y2="16.0548" gradientUnits="userSpaceOnUse">
<stop stop-color="#13405B"/>
<stop offset="0.65" stop-color="#784791"/>
<stop offset="1" stop-color="#DD9C36"/>
</linearGradient>
<linearGradient id="paint1_linear_368_3786" x1="3.20373" y1="-0.693204" x2="15.4383" y2="12.842" gradientUnits="userSpaceOnUse">
<stop stop-color="#13405B"/>
<stop offset="0.65" stop-color="#784791"/>
<stop offset="1" stop-color="#DD9C36"/>
</linearGradient>
<clipPath id="clip0_368_3786">
<rect width="16" height="16" fill="white" transform="translate(0.798828)"/>
</clipPath>
</defs>
</svg>
