<svg width="40" height="41" viewBox="0 0 40 41" fill="none" xmlns="http://www.w3.org/2000/svg">
<rect y="0.5" width="40" height="40" rx="20" fill="#D6CBE3"/>
<path d="M28.2473 16.1425C27.7848 16.6408 26.5065 17.9567 24.6482 19.39C22.6998 20.8933 20.4932 22.105 20.3998 22.1558C20.2757 22.2242 20.1382 22.2583 20.0007 22.2583C19.8632 22.2583 19.7257 22.2242 19.6007 22.1558C19.5082 22.105 17.3015 20.8933 15.3523 19.39C13.494 17.9567 12.2157 16.6408 11.7523 16.1417L11.2615 15.6167C11.0373 16.7725 10.834 18.2925 10.834 20.0008C10.834 23.7158 11.7973 26.5442 11.839 26.6625C11.9323 26.9325 12.1582 27.1358 12.4365 27.2008C12.5848 27.2358 16.1198 28.0533 20.0015 28.0533C24.0173 28.0533 27.4298 27.2342 27.5732 27.1992C27.8482 27.1325 28.0698 26.9308 28.1632 26.6633C28.204 26.5458 29.1681 23.7383 29.1681 20C29.1681 18.2775 28.9665 16.7617 28.744 15.6125L28.249 16.1425H28.2473Z" fill="url(#paint0_linear_368_2903)"/>
<path d="M12.9721 15.0058C13.313 15.3725 14.5613 16.6742 16.3705 18.0692C17.7421 19.1275 19.2871 20.0542 20.0005 20.4658C20.7138 20.0533 22.2621 19.1258 23.6296 18.07C25.4396 16.675 26.6871 15.3733 27.0263 15.0075L28.2705 13.6767C28.2088 13.4742 28.168 13.3558 28.1605 13.3342C28.0671 13.0683 27.8455 12.8683 27.5721 12.8017C27.4288 12.7667 24.0246 11.9475 19.9996 11.9475C16.0463 11.9475 12.5771 12.7658 12.4313 12.8008C12.1538 12.8675 11.9305 13.07 11.838 13.3392C11.8305 13.3617 11.7905 13.4783 11.7305 13.6783L12.9721 15.0075V15.0058Z" fill="url(#paint1_linear_368_2903)"/>
<defs>
<linearGradient id="paint0_linear_368_2903" x1="12.2475" y1="11.5027" x2="34.3584" y2="30.0685" gradientUnits="userSpaceOnUse">
<stop stop-color="#13405B"/>
<stop offset="0.65" stop-color="#784791"/>
<stop offset="1" stop-color="#DD9C36"/>
</linearGradient>
<linearGradient id="paint1_linear_368_2903" x1="13.0056" y1="9.13349" x2="28.2988" y2="26.0525" gradientUnits="userSpaceOnUse">
<stop stop-color="#13405B"/>
<stop offset="0.65" stop-color="#784791"/>
<stop offset="1" stop-color="#DD9C36"/>
</linearGradient>
</defs>
</svg>
