<svg width="245" height="242" viewBox="0 0 245 242" fill="none" xmlns="http://www.w3.org/2000/svg">
<path d="M61.5913 40.0562C61.5913 40.0562 98.3378 67.9409 154.202 15.8008C203.815 -30.5036 244.324 42.5547 244.608 77.5415C244.975 122.864 194.995 159.127 219.25 188.895C243.506 218.663 171.149 267.82 132.152 225.278C83.6415 172.357 70.4995 215.355 42.8487 215.355C23.0034 215.355 -17.7409 166.045 9.77326 129.359C32.926 98.4898 20.299 88.2438 14.1834 77.5415C5.36334 62.1063 26.311 20.2109 61.5913 40.0562Z" fill="#E8CDED"/>
<path d="M206.445 167.717L71.5312 209.138C69.2958 209.824 66.8796 209.593 64.8141 208.497C62.7486 207.401 61.2029 205.53 60.517 203.295L44.7401 151.918L31.6423 109.251L31.3887 108.435L33.1856 106.362L91.8172 38.7572C92.0857 38.4442 92.4374 38.2138 92.8316 38.0928C93.2259 37.9718 93.6463 37.9651 94.0442 38.0735L180.547 61.1491L183.16 61.8436L183.965 64.4455L212.289 156.693C212.973 158.929 212.742 161.346 211.646 163.413C210.551 165.48 208.68 167.027 206.445 167.717Z" fill="#4B3572"/>
<path d="M183.965 64.4447L132.83 124.686V121.379L180.547 61.1483L183.16 61.8428L183.965 64.4447Z" fill="#223F61"/>
<path d="M206.603 167.665C206.502 167.698 206.394 167.698 206.294 167.665L123.716 137.004C123.649 136.978 123.589 136.938 123.541 136.885C123.493 136.833 123.458 136.769 123.439 136.701C123.42 136.632 123.417 136.56 123.43 136.49C123.444 136.42 123.474 136.354 123.518 136.298L137.321 119.077L182.634 62.5081C182.684 62.4438 182.75 62.3944 182.826 62.3654C182.902 62.3364 182.984 62.3289 183.064 62.3437C183.144 62.3585 183.218 62.3951 183.278 62.4494C183.339 62.5037 183.383 62.5735 183.406 62.6513L212.093 156.099L212.281 156.695C212.963 158.903 212.749 161.29 211.687 163.342C210.625 165.394 208.799 166.946 206.603 167.665Z" fill="#9E5FAB"/>
<path d="M118.444 133.539L117.694 135.105L32.2046 108.689C32.1264 108.665 32.0432 108.662 31.9638 108.682C31.8844 108.701 31.8118 108.742 31.754 108.8C31.6961 108.858 31.6551 108.931 31.6355 109.01C31.6158 109.089 31.6181 109.173 31.6423 109.251L31.3887 108.435L33.1856 106.362L118.444 133.539Z" fill="#223F61"/>
<path d="M122.777 137.288L71.6312 209.006C71.5725 209.096 71.4817 209.159 71.3776 209.183C69.1571 209.821 66.7746 209.562 64.7434 208.46C62.7122 207.359 61.1948 205.504 60.5178 203.295L44.7409 151.918L31.6431 109.251C31.6189 109.173 31.6166 109.09 31.6362 109.01C31.6559 108.931 31.6969 108.858 31.7548 108.8C31.8126 108.743 31.8852 108.702 31.9646 108.682C32.044 108.662 32.1272 108.665 32.2054 108.689L117.694 135.105L122.544 136.604C122.612 136.626 122.673 136.662 122.723 136.711C122.773 136.76 122.811 136.821 122.834 136.887C122.857 136.954 122.863 137.025 122.853 137.094C122.843 137.164 122.817 137.23 122.777 137.288Z" fill="#9E5FAB"/>
<path d="M206.441 167.718L71.5356 209.139C69.493 209.759 67.2949 209.62 65.347 208.747C63.3991 207.873 61.833 206.325 60.9377 204.387C60.7867 204.056 60.7197 203.692 60.7427 203.329C60.7656 202.966 60.8778 202.615 61.0693 202.305L114.834 114.727C115.115 114.269 115.553 113.93 116.066 113.772C116.58 113.615 117.133 113.65 117.622 113.871L211.27 156.188C211.602 156.337 211.892 156.565 212.115 156.853C212.338 157.141 212.486 157.479 212.546 157.838C212.893 159.944 212.466 162.105 211.344 163.921C210.221 165.737 208.48 167.086 206.441 167.718Z" fill="#865091"/>
<path d="M179.813 30.2226C179.733 30.2225 179.655 30.202 179.585 30.1631C179.515 30.1242 179.456 30.0682 179.414 30.0002C179.372 29.9323 179.348 29.8547 179.344 29.7748C179.34 29.695 179.357 29.6155 179.393 29.5439C179.795 28.7304 180.01 28.2843 180.011 28.2831C180.036 28.2253 180.073 28.1732 180.119 28.1299C180.165 28.0866 180.219 28.053 180.279 28.0312C180.338 28.0093 180.401 27.9996 180.464 28.0026C180.527 28.0056 180.589 28.0214 180.646 28.0488C180.703 28.0762 180.753 28.1149 180.795 28.1624C180.837 28.2099 180.868 28.2653 180.888 28.3253C180.908 28.3852 180.915 28.4486 180.91 28.5115C180.904 28.5744 180.886 28.6356 180.857 28.6915C180.857 28.6915 180.64 29.1406 180.234 29.961C180.195 30.0395 180.135 30.1055 180.061 30.1517C179.987 30.1979 179.901 30.2225 179.813 30.2226Z" fill="white"/>
<path d="M132.352 97.1778C132.262 97.1777 132.175 97.1522 132.099 97.1041C132.024 97.056 131.964 96.9874 131.926 96.9063C131.888 96.8252 131.874 96.735 131.886 96.6464C131.897 96.5577 131.934 96.4742 131.992 96.4056C132.599 95.6818 133.176 94.9639 133.707 94.2715C133.783 94.1725 133.895 94.1078 134.019 94.0915C134.142 94.0752 134.267 94.1087 134.366 94.1845C134.465 94.2604 134.53 94.3724 134.546 94.496C134.562 94.6196 134.529 94.7446 134.453 94.8435C133.914 95.5467 133.328 96.2755 132.712 97.0099C132.668 97.0625 132.613 97.1048 132.55 97.1338C132.488 97.1628 132.42 97.1778 132.352 97.1778ZM135.698 92.7938C135.613 92.7937 135.529 92.7704 135.456 92.7263C135.383 92.6822 135.323 92.619 135.283 92.5434C135.243 92.4679 135.224 92.383 135.229 92.2977C135.234 92.2124 135.262 92.1301 135.31 92.0594C135.847 91.2687 136.334 90.4932 136.756 89.7544C136.786 89.7008 136.827 89.6537 136.876 89.6159C136.925 89.5781 136.981 89.5503 137.04 89.5341C137.1 89.5178 137.162 89.5134 137.223 89.5212C137.284 89.529 137.344 89.5487 137.397 89.5794C137.451 89.61 137.498 89.6508 137.536 89.6996C137.573 89.7484 137.601 89.8042 137.617 89.8638C137.634 89.9233 137.638 89.9855 137.63 90.0467C137.623 90.1079 137.603 90.167 137.572 90.2206C137.138 90.9807 136.639 91.7771 136.087 92.5881C136.044 92.6515 135.986 92.7034 135.918 92.7392C135.85 92.7751 135.775 92.7938 135.698 92.7938H135.698ZM135.601 88.3139H135.594C134.644 88.3183 133.704 88.1129 132.843 87.7123C132.787 87.6862 132.737 87.6493 132.695 87.6038C132.653 87.5583 132.621 87.505 132.6 87.447C132.579 87.389 132.569 87.3274 132.572 87.2657C132.575 87.2041 132.59 87.1435 132.616 87.0876C132.642 87.0317 132.679 86.9814 132.724 86.9398C132.77 86.8981 132.823 86.8658 132.881 86.8447C132.939 86.8236 133.001 86.8141 133.062 86.8168C133.124 86.8196 133.184 86.8344 133.24 86.8605C133.978 87.2025 134.781 87.3775 135.594 87.373C135.632 87.373 135.672 87.373 135.71 87.373H135.719C135.781 87.3724 135.842 87.384 135.9 87.4071C135.957 87.4302 136.009 87.4644 136.053 87.5076C136.097 87.5508 136.132 87.6023 136.156 87.6591C136.18 87.7159 136.193 87.7769 136.194 87.8387C136.194 87.9004 136.183 87.9616 136.16 88.0189C136.136 88.0761 136.102 88.1282 136.059 88.1723C136.016 88.2163 135.964 88.2514 135.908 88.2756C135.851 88.2997 135.79 88.3124 135.728 88.313C135.686 88.3136 135.644 88.3139 135.602 88.3139H135.601ZM138.4 87.9943C138.292 87.9644 138.194 87.9061 138.116 87.8256C138.038 87.7451 137.983 87.6452 137.956 87.5363C137.93 87.4273 137.933 87.3133 137.965 87.2058C137.997 87.0984 138.057 87.0014 138.139 86.925C138.416 86.2385 138.636 85.5305 138.797 84.8079C138.81 84.747 138.834 84.6892 138.869 84.6378C138.904 84.5864 138.948 84.5424 139.001 84.5084C139.053 84.4744 139.111 84.451 139.172 84.4397C139.233 84.4284 139.296 84.4292 139.356 84.4423C139.417 84.4554 139.475 84.4803 139.526 84.5158C139.577 84.5513 139.62 84.5965 139.654 84.6489C139.687 84.7012 139.71 84.7597 139.721 84.8209C139.731 84.8822 139.73 84.9449 139.716 85.0055C139.611 85.4862 139.479 85.9607 139.321 86.4268C139.75 86.2252 140.189 85.9918 140.635 85.728C140.742 85.6694 140.868 85.6547 140.985 85.6869C141.103 85.7191 141.203 85.7958 141.265 85.9007C141.328 86.0056 141.347 86.1306 141.318 86.2492C141.29 86.3678 141.217 86.4708 141.114 86.5364C140.393 86.9677 139.639 87.3393 138.858 87.6475L138.832 87.7076C138.796 87.7923 138.736 87.8646 138.659 87.9154C138.583 87.9662 138.493 87.9934 138.401 87.9936L138.4 87.9943ZM130.783 86.1895C130.668 86.1897 130.558 86.1483 130.473 86.073C129.723 85.4453 129.09 84.6899 128.603 83.8416C128.571 83.7871 128.55 83.7267 128.542 83.664C128.534 83.6012 128.538 83.5375 128.555 83.4766C128.572 83.4157 128.601 83.3588 128.641 83.3095C128.68 83.2601 128.729 83.2192 128.785 83.1892C128.841 83.1592 128.902 83.1408 128.965 83.1351C129.028 83.1293 129.092 83.1363 129.152 83.1557C129.212 83.175 129.268 83.2064 129.315 83.2478C129.363 83.2892 129.402 83.3398 129.43 83.3966C129.864 84.1457 130.427 84.8125 131.092 85.3663C131.164 85.4293 131.215 85.5128 131.238 85.6055C131.261 85.6982 131.255 85.7958 131.222 85.8853C131.188 85.9747 131.128 86.0517 131.049 86.1061C130.971 86.1605 130.877 86.1896 130.782 86.1895H130.783ZM143.155 85.0504C143.056 85.0506 142.96 85.0199 142.881 84.9627C142.801 84.9055 142.741 84.8246 142.709 84.7316C142.677 84.6385 142.676 84.5378 142.704 84.4438C142.733 84.3497 142.79 84.267 142.868 84.2073C143.543 83.6904 144.246 83.1028 144.958 82.4604C145.003 82.419 145.057 82.3871 145.115 82.3664C145.173 82.3457 145.235 82.3367 145.297 82.3399C145.358 82.3431 145.419 82.3583 145.474 82.3848C145.53 82.4113 145.58 82.4486 145.621 82.4944C145.663 82.5402 145.695 82.5937 145.715 82.6519C145.736 82.71 145.745 82.7717 145.742 82.8333C145.739 82.895 145.723 82.9554 145.697 83.0111C145.67 83.0669 145.633 83.1169 145.587 83.1582C144.857 83.8173 144.135 84.4214 143.44 84.9534C143.358 85.0158 143.258 85.0494 143.155 85.0489L143.155 85.0504ZM139.403 82.6367C139.29 82.6366 139.181 82.5959 139.095 82.522C139.01 82.4481 138.954 82.346 138.938 82.2344C138.836 81.4097 138.482 80.6365 137.925 80.0205C137.84 79.929 137.796 79.8079 137.801 79.6837C137.806 79.5595 137.86 79.4423 137.951 79.3577C138.042 79.2732 138.163 79.2282 138.287 79.2327C138.412 79.2371 138.529 79.2905 138.614 79.3813C139.302 80.1363 139.74 81.0854 139.868 82.0988C139.877 82.1599 139.874 82.2222 139.859 82.282C139.844 82.3418 139.817 82.3981 139.78 82.4476C139.743 82.4971 139.697 82.5388 139.644 82.5705C139.591 82.6021 139.532 82.6229 139.471 82.6318C139.448 82.635 139.425 82.6367 139.403 82.6367ZM128.72 81.4324C128.644 81.4324 128.57 81.4141 128.503 81.3791C128.436 81.3441 128.378 81.2934 128.335 81.2314C128.291 81.1693 128.264 81.0977 128.254 81.0226C128.244 80.9475 128.253 80.8712 128.279 80.8001C128.604 79.9165 129.313 79.1469 130.331 78.5753C130.44 78.5143 130.568 78.4989 130.688 78.5326C130.808 78.5663 130.91 78.6463 130.971 78.755C131.032 78.8637 131.047 78.9922 131.014 79.1122C130.98 79.2322 130.9 79.334 130.791 79.395C129.971 79.8554 129.408 80.4533 129.161 81.1246C129.128 81.2149 129.068 81.2928 128.989 81.3479C128.91 81.4029 128.816 81.4324 128.72 81.4324ZM147.266 81.3651C147.173 81.3651 147.083 81.3376 147.006 81.2863C146.928 81.2349 146.868 81.1619 146.832 81.0765C146.797 80.991 146.787 80.8968 146.805 80.8059C146.822 80.7149 146.866 80.6311 146.931 80.5651C147.544 79.9447 148.176 79.2723 148.811 78.5686C148.895 78.476 149.012 78.4205 149.136 78.4141C149.261 78.4077 149.383 78.451 149.475 78.5345C149.568 78.6181 149.623 78.7349 149.63 78.8594C149.636 78.9839 149.593 79.1058 149.509 79.1984C148.865 79.9128 148.223 80.5941 147.601 81.225C147.557 81.2694 147.505 81.3047 147.447 81.3288C147.39 81.3528 147.328 81.3652 147.266 81.3651ZM135.915 78.8047C135.873 78.8046 135.831 78.7991 135.791 78.7882C134.956 78.572 134.088 78.5168 133.233 78.6255C133.171 78.6329 133.109 78.6282 133.05 78.6116C132.99 78.595 132.935 78.5668 132.886 78.5288C132.838 78.4907 132.797 78.4434 132.767 78.3896C132.737 78.3358 132.717 78.2766 132.71 78.2153C132.702 78.154 132.707 78.0919 132.724 78.0325C132.74 77.973 132.768 77.9174 132.806 77.8689C132.845 77.8203 132.892 77.7797 132.946 77.7494C132.999 77.7191 133.059 77.6997 133.12 77.6923C134.095 77.5689 135.086 77.6327 136.037 77.8803C136.147 77.91 136.243 77.9786 136.306 78.0735C136.369 78.1684 136.396 78.283 136.381 78.396C136.366 78.5091 136.31 78.6128 136.225 78.6879C136.139 78.7629 136.029 78.8043 135.915 78.8041V78.8047ZM150.973 77.2689C150.884 77.2688 150.796 77.2432 150.721 77.1951C150.645 77.1469 150.585 77.0783 150.548 76.9971C150.51 76.916 150.496 76.8258 150.508 76.7371C150.52 76.6484 150.557 76.5649 150.614 76.4964C151.183 75.8196 151.768 75.1034 152.353 74.366C152.391 74.3167 152.439 74.2754 152.493 74.2445C152.547 74.2137 152.607 74.1939 152.669 74.1863C152.73 74.1787 152.793 74.1835 152.853 74.2004C152.913 74.2173 152.969 74.246 153.018 74.2847C153.067 74.3234 153.107 74.3715 153.137 74.426C153.167 74.4806 153.186 74.5406 153.193 74.6025C153.2 74.6644 153.194 74.7271 153.176 74.7868C153.158 74.8465 153.129 74.9021 153.089 74.9503C152.499 75.6946 151.908 76.4184 151.333 77.1014C151.289 77.1539 151.234 77.1961 151.172 77.225C151.11 77.2539 151.043 77.2689 150.974 77.2689H150.973ZM154.413 72.9429C154.325 72.9428 154.24 72.9184 154.165 72.8723C154.091 72.8263 154.031 72.7604 153.992 72.6822C153.953 72.6039 153.937 72.5164 153.945 72.4293C153.953 72.3423 153.985 72.2593 154.038 72.1895C154.575 71.4787 155.126 70.7337 155.675 69.9751C155.749 69.8741 155.859 69.8063 155.982 69.7866C156.105 69.767 156.231 69.797 156.332 69.8701C156.433 69.9432 156.501 70.0535 156.52 70.1766C156.54 70.2997 156.51 70.4255 156.437 70.5265C155.884 71.2903 155.329 72.0405 154.788 72.7562C154.744 72.8141 154.688 72.8611 154.623 72.8935C154.558 72.9259 154.486 72.9428 154.413 72.9429H154.413ZM157.657 68.4685C157.571 68.4684 157.487 68.4447 157.413 68.4002C157.34 68.3556 157.28 68.2917 157.24 68.2155C157.201 68.1394 157.183 68.0538 157.188 67.9681C157.194 67.8824 157.223 67.7999 157.272 67.7294C157.784 66.9962 158.309 66.2309 158.832 65.4569C158.902 65.3536 159.01 65.2822 159.133 65.2585C159.255 65.2348 159.382 65.2607 159.485 65.3306C159.588 65.4004 159.66 65.5084 159.683 65.6308C159.707 65.7532 159.681 65.88 159.611 65.9833C159.085 66.7612 158.559 67.53 158.043 68.2679C158 68.3298 157.942 68.3804 157.875 68.4153C157.808 68.4502 157.733 68.4684 157.658 68.4683L157.657 68.4685ZM160.752 63.889C160.667 63.8889 160.584 63.866 160.511 63.8225C160.438 63.7791 160.379 63.7168 160.338 63.6422C160.298 63.5676 160.279 63.4835 160.282 63.3989C160.286 63.3142 160.312 63.2321 160.359 63.1612C160.856 62.4028 161.361 61.6221 161.86 60.8404C161.927 60.7353 162.033 60.6611 162.155 60.6343C162.276 60.6074 162.404 60.63 162.509 60.697C162.614 60.7641 162.688 60.8701 162.715 60.9919C162.742 61.1136 162.719 61.241 162.652 61.3461C162.151 62.131 161.644 62.9151 161.145 63.6773C161.102 63.7423 161.044 63.7957 160.975 63.8326C160.907 63.8695 160.83 63.8888 160.752 63.8888L160.752 63.889ZM163.728 59.2266C163.645 59.2265 163.562 59.204 163.49 59.1615C163.418 59.1189 163.359 59.0579 163.318 58.9846C163.277 58.9113 163.257 58.8285 163.259 58.7448C163.261 58.661 163.286 58.5794 163.33 58.5082C163.806 57.7432 164.292 56.9527 164.776 56.1582C164.841 56.0517 164.945 55.9753 165.066 55.9459C165.187 55.9164 165.315 55.9362 165.422 56.0011C165.528 56.0659 165.605 56.1703 165.634 56.2915C165.664 56.4126 165.644 56.5405 165.579 56.647C165.094 57.4441 164.606 58.2375 164.128 59.0049C164.085 59.0725 164.027 59.1281 163.957 59.1667C163.887 59.2053 163.809 59.2255 163.729 59.2254L163.728 59.2266ZM166.602 54.5048C166.519 54.5047 166.438 54.4826 166.366 54.4408C166.294 54.399 166.235 54.3389 166.194 54.2668C166.153 54.1946 166.132 54.1129 166.133 54.0299C166.133 53.9469 166.156 53.8656 166.199 53.7943C166.674 52.9969 167.141 52.2045 167.601 51.4169C167.631 51.3627 167.672 51.3151 167.721 51.277C167.771 51.2388 167.827 51.2108 167.887 51.1946C167.947 51.1783 168.01 51.1742 168.072 51.1824C168.133 51.1906 168.193 51.211 168.246 51.2424C168.3 51.2738 168.347 51.3155 168.385 51.3652C168.422 51.4149 168.449 51.4715 168.465 51.5318C168.48 51.5921 168.484 51.6549 168.475 51.7165C168.466 51.7781 168.444 51.8373 168.412 51.8906C167.951 52.6802 167.483 53.4751 167.006 54.2752C166.965 54.3451 166.906 54.4029 166.835 54.4431C166.764 54.4833 166.684 54.5044 166.603 54.5044L166.602 54.5048ZM169.389 49.7309C169.307 49.7308 169.226 49.7091 169.155 49.668C169.083 49.6268 169.024 49.5676 168.983 49.4964C168.942 49.4251 168.92 49.3443 168.92 49.2619C168.92 49.1796 168.941 49.0986 168.982 49.0272C169.447 48.2162 169.901 47.4159 170.345 46.6263C170.375 46.5722 170.415 46.5246 170.464 46.4862C170.512 46.4478 170.568 46.4194 170.628 46.4026C170.687 46.3858 170.75 46.3809 170.811 46.3882C170.872 46.3956 170.932 46.4149 170.986 46.4453C171.04 46.4756 171.087 46.5163 171.125 46.565C171.163 46.6137 171.192 46.6695 171.208 46.7291C171.225 46.7887 171.229 46.8511 171.222 46.9125C171.214 46.9739 171.195 47.0332 171.164 47.087C170.719 47.8778 170.264 48.6799 169.798 49.4934C169.756 49.5651 169.697 49.6246 169.626 49.666C169.554 49.7074 169.473 49.7292 169.39 49.7292L169.389 49.7309ZM172.1 44.9121C172.019 44.912 171.938 44.8906 171.867 44.85C171.796 44.8094 171.737 44.751 171.696 44.6806C171.654 44.6102 171.632 44.5301 171.631 44.4484C171.63 44.3667 171.65 44.2861 171.69 44.2146C172.146 43.3874 172.589 42.5801 173.017 41.7926C173.076 41.6831 173.177 41.6017 173.296 41.5663C173.416 41.531 173.545 41.5446 173.654 41.6041C173.764 41.6636 173.845 41.7642 173.88 41.8838C173.916 42.0033 173.902 42.132 173.843 42.2415C173.414 43.03 172.971 43.8393 172.512 44.6694C172.471 44.7426 172.412 44.8037 172.34 44.8462C172.267 44.8886 172.185 44.911 172.101 44.9109L172.1 44.9121ZM174.741 40.0526C174.66 40.0525 174.58 40.0313 174.51 39.9913C174.439 39.9512 174.38 39.8935 174.339 39.8239C174.297 39.7542 174.274 39.675 174.272 39.5939C174.27 39.5128 174.289 39.4325 174.328 39.361C174.782 38.5114 175.213 37.6976 175.622 36.9196C175.65 36.8638 175.688 36.8141 175.736 36.7734C175.783 36.7328 175.838 36.702 175.898 36.6829C175.957 36.6638 176.02 36.6567 176.082 36.6621C176.145 36.6675 176.205 36.6852 176.26 36.7143C176.316 36.7434 176.365 36.7832 176.404 36.8314C176.444 36.8796 176.474 36.9352 176.492 36.9951C176.51 37.0549 176.516 37.1177 176.509 37.1798C176.502 37.242 176.484 37.3022 176.453 37.3569C176.045 38.1349 175.612 38.9505 175.156 39.8039C175.116 39.8788 175.056 39.9413 174.983 39.9849C174.91 40.0285 174.827 40.0515 174.742 40.0515L174.741 40.0526ZM177.315 35.1543C177.234 35.1542 177.155 35.1334 177.085 35.0939C177.015 35.0544 176.956 34.9974 176.914 34.9286C176.872 34.8597 176.848 34.7812 176.846 34.7006C176.843 34.62 176.861 34.5401 176.898 34.4685C177.365 33.5633 177.787 32.7389 178.157 32.0074C178.185 31.952 178.224 31.9026 178.27 31.862C178.317 31.8215 178.372 31.7906 178.43 31.7712C178.489 31.7517 178.551 31.7441 178.613 31.7488C178.675 31.7534 178.735 31.7702 178.79 31.7982C178.846 31.8262 178.895 31.8648 178.935 31.9119C178.975 31.959 179.006 32.0135 179.025 32.0725C179.044 32.1314 179.051 32.1935 179.046 32.2553C179.041 32.317 179.024 32.3772 178.996 32.4323C178.624 33.1655 178.202 33.9926 177.733 34.8999C177.694 34.9763 177.634 35.0404 177.56 35.085C177.486 35.1297 177.402 35.1533 177.316 35.1532L177.315 35.1543Z" fill="white"/>
<path d="M129.632 100.253C129.541 100.253 129.451 100.226 129.375 100.176C129.298 100.126 129.238 100.055 129.201 99.9709C129.165 99.8871 129.153 99.7945 129.169 99.7043C129.184 99.6141 129.225 99.5304 129.288 99.4633C129.612 99.1132 129.928 98.7679 130.234 98.4277C130.274 98.3805 130.324 98.342 130.38 98.3144C130.436 98.2867 130.497 98.2705 130.559 98.2666C130.622 98.2628 130.684 98.2714 130.743 98.2919C130.802 98.3124 130.856 98.3445 130.903 98.3862C130.949 98.4279 130.987 98.4785 131.013 98.5349C131.04 98.5913 131.055 98.6525 131.058 98.7148C131.061 98.7772 131.051 98.8394 131.03 98.898C131.008 98.9566 130.975 99.0103 130.933 99.0559C130.623 99.3999 130.305 99.7487 129.977 100.102C129.933 100.15 129.88 100.188 129.82 100.214C129.761 100.24 129.697 100.253 129.632 100.253Z" fill="white"/>
<path d="M109.95 70.0024C109.87 70.0024 109.792 69.9819 109.722 69.9431C109.652 69.9042 109.593 69.8481 109.551 69.7802C109.509 69.7123 109.485 69.6347 109.481 69.5549C109.477 69.4751 109.494 69.3956 109.529 69.3239C109.912 68.5498 110.119 68.0752 110.121 68.0705C110.171 67.9568 110.264 67.8675 110.38 67.8222C110.495 67.7768 110.624 67.7792 110.738 67.8287C110.852 67.8782 110.942 67.9709 110.988 68.0864C111.034 68.2019 111.032 68.3308 110.983 68.445C110.974 68.465 110.766 68.9432 110.372 69.7405C110.333 69.8192 110.273 69.8854 110.198 69.9316C110.124 69.9779 110.038 70.0024 109.95 70.0024Z" fill="white"/>
<path d="M87.2027 92.5641C87.1115 92.5641 87.0222 92.5375 86.9458 92.4876C86.8694 92.4377 86.8091 92.3666 86.7724 92.283C86.7358 92.1995 86.7242 92.107 86.7392 92.017C86.7542 91.9269 86.7951 91.8432 86.8568 91.776C87.527 91.0466 88.1642 90.3273 88.7509 89.6385C88.7907 89.5906 88.8395 89.5511 88.8947 89.5223C88.9498 89.4935 89.0101 89.4759 89.0721 89.4706C89.134 89.4652 89.1965 89.4722 89.2557 89.4912C89.315 89.5101 89.3699 89.5407 89.4172 89.581C89.4646 89.6214 89.5034 89.6707 89.5316 89.7262C89.5597 89.7817 89.5766 89.8422 89.5812 89.9042C89.5858 89.9663 89.578 90.0286 89.5583 90.0876C89.5386 90.1466 89.5074 90.2011 89.4664 90.248C88.8722 90.9458 88.2271 91.674 87.5488 92.412C87.5049 92.4601 87.4514 92.4984 87.3918 92.5246C87.3322 92.5508 87.2678 92.5642 87.2027 92.5641ZM90.9184 88.1813C90.8307 88.1812 90.7447 88.1567 90.6703 88.1103C90.5958 88.064 90.5358 87.9977 90.497 87.919C90.4583 87.8404 90.4423 87.7524 90.4509 87.6651C90.4595 87.5779 90.4924 87.4947 90.5458 87.4251C91.1609 86.6235 91.7157 85.846 92.1945 85.1152C92.2283 85.0636 92.272 85.0191 92.323 84.9843C92.374 84.9496 92.4314 84.9252 92.4918 84.9126C92.5522 84.9 92.6145 84.8994 92.6752 84.9109C92.7358 84.9224 92.7936 84.9457 92.8453 84.9796C92.8969 85.0134 92.9414 85.057 92.9761 85.108C93.0109 85.1591 93.0353 85.2164 93.0479 85.2768C93.0605 85.3373 93.061 85.3996 93.0496 85.4602C93.0381 85.5209 93.0148 85.5787 92.9809 85.6303C92.4893 86.3808 91.921 87.1774 91.2916 87.9974C91.2476 88.0547 91.1911 88.101 91.1264 88.1329C91.0617 88.1648 90.9905 88.1813 90.9184 88.1813ZM94.1674 85.6158C94.0479 85.6155 93.933 85.5696 93.8461 85.4875C93.7592 85.4055 93.7068 85.2934 93.6997 85.1741C93.6925 85.0548 93.731 84.9372 93.8074 84.8453C93.8838 84.7534 93.9924 84.6941 94.111 84.6794C95.0192 84.5623 95.907 84.3209 96.7494 83.962C96.8644 83.9138 96.9938 83.9132 97.1092 83.9604C97.2246 84.0076 97.3165 84.0988 97.3647 84.2137C97.4129 84.3287 97.4135 84.4581 97.3663 84.5735C97.3191 84.6889 97.2279 84.7808 97.113 84.8291C96.1909 85.2211 95.2194 85.4847 94.2257 85.6125C94.2063 85.6147 94.1869 85.6158 94.1674 85.6158ZM91.3098 85.5196C91.2798 85.5195 91.2499 85.5167 91.2205 85.5111C90.2368 85.3164 89.2845 84.9871 88.3907 84.5324C88.2803 84.4759 88.1967 84.378 88.1581 84.2601C88.1196 84.1423 88.1292 84.0139 88.1848 83.9031C88.2405 83.7922 88.3377 83.7079 88.4553 83.6684C88.5729 83.629 88.7013 83.6376 88.8126 83.6924C89.6292 84.1082 90.4991 84.4096 91.398 84.588C91.5127 84.6101 91.6152 84.6742 91.6853 84.7677C91.7554 84.8612 91.7881 84.9775 91.7771 85.0939C91.7661 85.2102 91.7121 85.3183 91.6257 85.397C91.5393 85.4757 91.4267 85.5194 91.3098 85.5196ZM99.4436 83.4783C99.3432 83.4784 99.2454 83.4463 99.1646 83.3868C99.0837 83.3273 99.024 83.2435 98.9943 83.1476C98.9645 83.0517 98.9662 82.9488 98.9992 82.854C99.0321 82.7592 99.0946 82.6774 99.1774 82.6206C99.9471 82.0879 100.677 81.5003 101.363 80.8625C101.408 80.8206 101.461 80.788 101.519 80.7666C101.577 80.7453 101.638 80.7355 101.7 80.738C101.762 80.7404 101.822 80.7549 101.878 80.7808C101.934 80.8066 101.985 80.8433 102.027 80.8886C102.069 80.9339 102.101 80.987 102.123 81.045C102.144 81.1029 102.154 81.1644 102.151 81.2261C102.149 81.2878 102.134 81.3484 102.108 81.4044C102.083 81.4605 102.046 81.5109 102.001 81.5528C101.282 82.2213 100.516 82.837 99.7089 83.3952C99.6307 83.4493 99.5378 83.4783 99.4427 83.4783H99.4436ZM94.0245 83.3563C93.9447 83.3562 93.8663 83.3358 93.7966 83.2971C93.7269 83.2584 93.6682 83.2025 93.626 83.1348C93.5838 83.0671 93.5595 82.9898 93.5555 82.9101C93.5514 82.8305 93.5677 82.7511 93.6028 82.6795C94.0212 81.863 94.3319 80.9956 94.527 80.0992C94.5507 79.9768 94.6221 79.8688 94.7254 79.7991C94.8287 79.7293 94.9555 79.7034 95.0779 79.7271C95.2003 79.7508 95.3082 79.8222 95.378 79.9255C95.4478 80.0288 95.4736 80.1556 95.4499 80.278C95.2391 81.2558 94.902 82.2021 94.4469 83.0929C94.4082 83.1721 94.3479 83.2388 94.2731 83.2853C94.1982 83.3319 94.1117 83.3565 94.0236 83.3563H94.0245ZM86.2402 82.9649C86.1158 82.9649 85.9965 82.9156 85.9084 82.8278C85.1047 82.0271 84.6973 81.1734 84.6973 80.2879C84.6973 80.1471 84.7078 80.0065 84.7287 79.8672C84.7471 79.7439 84.8138 79.633 84.9141 79.5589C85.0143 79.4848 85.1399 79.4535 85.2631 79.472C85.3864 79.4905 85.4973 79.5572 85.5714 79.6574C85.6455 79.7576 85.6768 79.8832 85.6583 80.0065C85.6444 80.0998 85.6373 80.1941 85.6373 80.2885C85.6373 80.9141 85.9518 81.5445 86.572 82.1625C86.6379 82.2281 86.6828 82.3119 86.7011 82.4031C86.7194 82.4943 86.7102 82.5889 86.6746 82.6749C86.6391 82.7609 86.5789 82.8344 86.5015 82.8861C86.4242 82.9378 86.3332 82.9654 86.2402 82.9654V82.9649ZM103.681 79.6122C103.591 79.6122 103.503 79.5861 103.427 79.5372C103.351 79.4883 103.291 79.4185 103.253 79.3363C103.216 79.2541 103.203 79.1629 103.216 79.0736C103.23 78.9843 103.268 78.9007 103.328 78.8328C103.923 78.1528 104.521 77.4085 105.105 76.6206C105.179 76.5214 105.29 76.4557 105.413 76.4379C105.536 76.4201 105.66 76.4515 105.76 76.5254C105.86 76.5993 105.926 76.7096 105.945 76.8323C105.964 76.955 105.933 77.0801 105.86 77.1803C105.261 77.9887 104.647 78.7529 104.035 79.4519C103.991 79.5025 103.936 79.543 103.875 79.5707C103.814 79.5983 103.747 79.6125 103.68 79.6122H103.681ZM86.7827 78.0988C86.6841 78.0988 86.588 78.0678 86.5079 78.0101C86.4279 77.9524 86.3681 77.871 86.3369 77.7775C86.3057 77.6839 86.3047 77.5829 86.3341 77.4887C86.3635 77.3945 86.4218 77.312 86.5007 77.2528C87.322 76.651 88.2443 76.201 89.2241 75.9241C89.3427 75.8926 89.469 75.9088 89.5758 75.9692C89.6827 76.0296 89.7617 76.1293 89.7959 76.2472C89.8302 76.365 89.8169 76.4916 89.7591 76.5999C89.7013 76.7081 89.6034 76.7894 89.4864 76.8265C88.6165 77.0735 87.797 77.4721 87.0657 78.0039C86.9839 78.0655 86.8842 78.0986 86.7818 78.0981L86.7827 78.0988ZM94.6412 77.8789C94.5626 77.8789 94.4854 77.8592 94.4164 77.8217C94.3474 77.7842 94.289 77.73 94.2463 77.664C93.7442 76.8876 92.8258 76.6313 92.1439 76.5531C92.0821 76.5467 92.0222 76.528 91.9676 76.4983C91.9131 76.4686 91.865 76.4283 91.8261 76.3798C91.7872 76.3313 91.7583 76.2756 91.741 76.2159C91.7238 76.1562 91.7186 76.0937 91.7257 76.032C91.7328 75.9702 91.7521 75.9105 91.7824 75.8563C91.8127 75.802 91.8535 75.7543 91.9024 75.7159C91.9513 75.6776 92.0073 75.6493 92.0672 75.6327C92.127 75.6161 92.1896 75.6116 92.2513 75.6193C93.5177 75.7646 94.4804 76.2961 95.0356 77.1536C95.0815 77.2246 95.1074 77.3066 95.1106 77.3911C95.1138 77.4756 95.0942 77.5593 95.0538 77.6336C95.0134 77.7078 94.9537 77.7698 94.881 77.813C94.8083 77.8562 94.7253 77.8789 94.6408 77.8789H94.6412ZM107.116 75.0025C107.032 75.0024 106.949 74.9796 106.876 74.9365C106.804 74.8934 106.744 74.8315 106.704 74.7574C106.663 74.6832 106.644 74.5996 106.647 74.5152C106.65 74.4309 106.676 74.3489 106.721 74.2779C107.226 73.4953 107.721 72.6745 108.195 71.8383C108.225 71.7841 108.266 71.7364 108.315 71.698C108.363 71.6596 108.419 71.6312 108.479 71.6145C108.539 71.5978 108.601 71.593 108.663 71.6005C108.724 71.608 108.784 71.6276 108.837 71.6581C108.891 71.6887 108.939 71.7296 108.977 71.7786C109.015 71.8276 109.043 71.8836 109.059 71.9434C109.076 72.0032 109.08 72.0656 109.072 72.1271C109.064 72.1886 109.044 72.248 109.013 72.3017C108.53 73.1533 108.025 73.9894 107.512 74.7868C107.469 74.8534 107.41 74.9081 107.341 74.9459C107.272 74.9837 107.194 75.0034 107.115 75.0032L107.116 75.0025Z" fill="white"/>
<path d="M84.222 95.6696C84.1292 95.6696 84.0384 95.6421 83.9612 95.5906C83.8839 95.5391 83.8236 95.4658 83.788 95.3801C83.7523 95.2943 83.7429 95.1999 83.7608 95.1088C83.7787 95.0177 83.8232 94.934 83.8887 94.8681C84.2271 94.5297 84.5559 94.1965 84.875 93.8685C84.962 93.7793 85.0809 93.7282 85.2055 93.7266C85.3302 93.725 85.4504 93.773 85.5396 93.86C85.6289 93.947 85.68 94.0659 85.6816 94.1905C85.6832 94.3152 85.6352 94.4354 85.5482 94.5246C85.2261 94.8552 84.8946 95.1911 84.5539 95.5323C84.5103 95.5759 84.4586 95.6104 84.4016 95.634C84.3447 95.6575 84.2837 95.6696 84.222 95.6696Z" fill="white"/>
</svg>
