<svg width="41" height="40" viewBox="0 0 41 40" fill="none" xmlns="http://www.w3.org/2000/svg">
<path d="M38.8498 14.8239C38.8498 14.8239 38.8498 16.5 38.1747 18.7037L30.6503 11.0462C30.2422 10.6303 29.6886 10.3964 29.1112 10.3959H22.4275C21.9405 10.3962 21.4676 10.5627 21.0844 10.8688L18.4461 12.9705C18.265 13.1149 18.0578 13.2216 17.8362 13.2844C17.6146 13.3471 17.383 13.3648 17.1546 13.3364C16.9263 13.308 16.7057 13.234 16.5055 13.1188C16.3053 13.0035 16.1294 12.8491 15.9878 12.6646C15.7018 12.2913 15.5729 11.8179 15.6292 11.348C15.6855 10.8781 15.9226 10.4502 16.2884 10.1579L25.2909 3H27.2337C30.3145 3 33.2691 4.24573 35.4476 6.46315C37.626 8.68057 38.8498 11.688 38.8498 14.8239ZM8.91507 19.7456C8.7698 19.5974 8.59724 19.4798 8.40725 19.3996C8.21727 19.3193 8.0136 19.278 7.80791 19.278C7.60222 19.278 7.39855 19.3193 7.20856 19.3996C7.01858 19.4798 6.84601 19.5974 6.70074 19.7456L4.45883 22.0365C4.16498 22.3368 4 22.7434 4 23.1672C4 23.591 4.16498 23.9976 4.45883 24.2979C4.6041 24.4461 4.77666 24.5637 4.96665 24.6439C5.15663 24.7242 5.3603 24.7655 5.56599 24.7655C5.77168 24.7655 5.97535 24.7242 6.16534 24.6439C6.35532 24.5637 6.52789 24.4461 6.67316 24.2979L8.91507 22.007C9.20883 21.7069 9.37377 21.3006 9.37377 20.877C9.37377 20.4535 9.20883 20.0471 8.91507 19.7471M11.2325 22.8346C11.3777 22.686 11.5503 22.5681 11.7404 22.4876C11.9306 22.4071 12.1345 22.3657 12.3404 22.3657C12.5463 22.3657 12.7502 22.4071 12.9403 22.4876C13.1304 22.5681 13.3031 22.686 13.4483 22.8346C13.7417 23.1349 13.9064 23.5411 13.9064 23.9646C13.9064 24.388 13.7417 24.7943 13.4483 25.0945L11.2034 27.3809C11.0583 27.5294 10.8857 27.6471 10.6957 27.7275C10.5057 27.8078 10.302 27.8492 10.0963 27.8492C9.89054 27.8492 9.68682 27.8078 9.49682 27.7275C9.30682 27.6471 9.13429 27.5294 8.98912 27.3809C8.69572 27.0807 8.53101 26.6745 8.53101 26.251C8.53101 25.8276 8.69572 25.4213 8.98912 25.1211L11.2325 22.8346ZM17.2104 26.673C17.0652 26.5248 16.8926 26.4071 16.7026 26.3269C16.5126 26.2467 16.309 26.2054 16.1033 26.2054C15.8976 26.2054 15.6939 26.2467 15.5039 26.3269C15.3139 26.4071 15.1414 26.5248 14.9961 26.673L12.7542 28.9609C12.46 29.261 12.2948 29.6676 12.2948 30.0916C12.2948 30.5155 12.46 30.9222 12.7542 31.2222C12.8994 31.3706 13.0719 31.4884 13.2619 31.5688C13.4519 31.6491 13.6556 31.6905 13.8614 31.6905C14.0671 31.6905 14.2708 31.6491 14.4608 31.5688C14.6508 31.4884 14.8234 31.3706 14.9685 31.2222L17.2104 28.9328C17.5043 28.6326 17.6693 28.226 17.6693 27.8022C17.6693 27.3783 17.5043 26.9733 17.2104 26.673ZM20.9712 30.5084C20.826 30.3597 20.6533 30.2418 20.4632 30.1613C20.2731 30.0808 20.0692 30.0394 19.8633 30.0394C19.6574 30.0394 19.4535 30.0808 19.2633 30.1613C19.0732 30.2418 18.9006 30.3597 18.7554 30.5084L16.5135 32.7978C16.2201 33.098 16.0554 33.5042 16.0554 33.9277C16.0554 34.3512 16.2201 34.7574 16.5135 35.0576C16.6586 35.206 16.8312 35.3238 17.0212 35.4042C17.2112 35.4845 17.4149 35.5259 17.6206 35.5259C17.8264 35.5259 18.0301 35.4845 18.2201 35.4042C18.4101 35.3238 18.5826 35.206 18.7278 35.0576L20.9697 32.7682C21.2635 32.4682 21.4284 32.0619 21.4284 31.6383C21.4284 31.2147 21.2635 30.8084 20.9697 30.5084M20.0303 3.43157C19.2654 3.20162 18.478 3.05789 17.6823 3.00296L17.5517 3H17.0696C13.9888 3 11.0342 4.24573 8.85575 6.46315C6.6773 8.68057 5.45346 11.688 5.45346 14.8239V17.9085C6.17124 17.314 7.08039 17.0122 8.00446 17.0617C8.92853 17.1111 9.8016 17.5082 10.4542 18.176C11.0248 18.7598 11.3733 19.4855 11.4982 20.2422C12.0491 20.1138 12.6214 20.1139 13.1722 20.2425C13.723 20.3711 14.2381 20.6249 14.6789 20.9849C15.1198 21.3449 15.4748 21.8017 15.7176 22.3212C15.9604 22.8406 16.0845 23.4093 16.0808 23.9845C16.5762 23.9822 17.0671 24.0798 17.5251 24.2719C17.9832 24.464 18.3993 24.7466 18.7493 25.1034C19.0993 25.4603 19.3763 25.8842 19.5643 26.3507C19.7523 26.8173 19.8475 27.3171 19.8444 27.8214C20.3386 27.8189 20.8284 27.9165 21.2853 28.1083C21.7422 28.3001 22.1571 28.5824 22.5059 28.9387C23.2073 29.6561 23.6011 30.627 23.6011 31.639C23.6011 32.6511 23.2073 33.622 22.5059 34.3393L22.1792 34.6733L24.0291 36.5415C24.3224 36.8353 24.7175 37 25.129 37C25.5405 37 25.9356 36.8353 26.2289 36.5415C26.83 35.9356 26.8315 34.9542 26.2318 34.3467C26.0258 34.1388 25.9094 33.856 25.9081 33.5607C25.9069 33.2654 26.021 32.9816 26.2253 32.7719C26.4296 32.5622 26.7074 32.4437 26.9975 32.4424C27.2876 32.4412 27.5664 32.5573 27.7724 32.7653C28.0657 33.0591 28.4608 33.2237 28.8723 33.2237C29.2838 33.2237 29.6789 33.0591 29.9722 32.7653C30.115 32.6217 30.2284 32.4508 30.3058 32.2623C30.3832 32.0739 30.4232 31.8717 30.4233 31.6674C30.4234 31.4632 30.3838 31.2609 30.3066 31.0723C30.2294 30.8838 30.1162 30.7127 29.9737 30.569C29.7806 30.3583 29.6752 30.0798 29.6795 29.7918C29.6838 29.5038 29.7975 29.2286 29.9968 29.0241C30.196 28.8196 30.4654 28.7015 30.7483 28.6947C31.0312 28.6879 31.3057 28.7928 31.5143 28.9875C31.8079 29.2805 32.2028 29.4443 32.614 29.4438C33.0252 29.4432 33.4197 29.2783 33.7126 28.9846C34.3283 28.3638 34.3254 27.3558 33.7373 26.7602L33.7329 26.7572L30.4615 23.4258C30.2692 23.2157 30.1645 22.9378 30.1694 22.6506C30.1744 22.3634 30.2887 22.0894 30.4882 21.8863C30.6878 21.6832 30.9569 21.5669 31.2391 21.5618C31.5212 21.5568 31.7942 21.6634 32.0007 21.8592L35.8282 25.7507C36.5934 26.5237 37.8552 26.5311 38.5188 25.8616C39.1794 25.195 39.1736 23.9298 38.4157 23.1628L38.4128 23.1598L28.7772 13.3533H22.6787L20.2364 15.2984C19.755 15.6818 19.2041 15.965 18.6151 16.1317C18.0262 16.2983 17.4107 16.3453 16.804 16.2698C16.1972 16.1943 15.611 15.9979 15.0788 15.6917C14.5466 15.3855 14.0789 14.9757 13.7024 14.4855C12.9416 13.4947 12.5984 12.237 12.7481 10.9888C12.8979 9.74057 13.5283 8.60392 14.501 7.8286L20.0303 3.43157Z" fill="url(#paint0_linear_367_7106)"/>
<defs>
<linearGradient id="paint0_linear_367_7106" x1="6.69837" y1="-8.23186" x2="60.2469" y2="23.1755" gradientUnits="userSpaceOnUse">
<stop stop-color="#13405B"/>
<stop offset="0.65" stop-color="#784791"/>
<stop offset="1" stop-color="#DD9C36"/>
</linearGradient>
</defs>
</svg>
