<svg width="16" height="17" viewBox="0 0 16 17" fill="none" xmlns="http://www.w3.org/2000/svg">
<path d="M10.668 7.16699L12.1009 7.59687C13.0164 7.87151 13.4741 8.00883 13.7377 8.36313C14.0013 8.71742 14.0013 9.19531 14.0013 10.1511V15.167" stroke="white" stroke-linejoin="round"/>
<path d="M5.33398 6.5L7.33398 6.5M5.33398 9.16667L7.33398 9.16667" stroke="white" stroke-linecap="round" stroke-linejoin="round"/>
<path d="M8.0013 15.1668V13.1668C8.0013 12.5383 8.0013 12.224 7.80604 12.0288C7.61078 11.8335 7.29651 11.8335 6.66797 11.8335H6.0013C5.37276 11.8335 5.05849 11.8335 4.86323 12.0288C4.66797 12.224 4.66797 12.5383 4.66797 13.1668V15.1668" stroke="white" stroke-linejoin="round"/>
<path d="M1.33398 15.167L14.6673 15.167" stroke="white" stroke-linecap="round"/>
<path d="M2 15.1668V4.97832C2 3.30449 2 2.46757 2.52746 2.05233C3.05491 1.63708 3.83161 1.86253 5.38501 2.31343L8.71835 3.28097C9.65576 3.55307 10.1245 3.68912 10.3956 4.05993C10.6667 4.43074 10.6667 4.93579 10.6667 5.94587V15.1668" stroke="white" stroke-linecap="round" stroke-linejoin="round"/>
</svg>
