<svg width="16" height="17" viewBox="0 0 16 17" fill="none" xmlns="http://www.w3.org/2000/svg">
<path d="M8 1.8335H4C2.34533 1.8335 2 2.17883 2 3.8335V15.1668H10V3.8335C10 2.17883 9.65467 1.8335 8 1.8335Z" stroke="white" stroke-linejoin="round"/>
<path d="M12 5.8335H10V15.1668H14V7.8335C14 6.17883 13.6547 5.8335 12 5.8335Z" stroke="white" stroke-linejoin="round"/>
<path d="M5.33398 4.5L6.66732 4.5M5.33398 6.5L6.66732 6.5M5.33398 8.5L6.66732 8.5" stroke="white" stroke-linecap="round" stroke-linejoin="round"/>
<path d="M7.66732 15.167V12.5003C7.66732 11.8718 7.66732 11.5575 7.47206 11.3623C7.27679 11.167 6.96252 11.167 6.33398 11.167H5.66732C5.03878 11.167 4.72451 11.167 4.52925 11.3623C4.33398 11.5575 4.33398 11.8718 4.33398 12.5003V15.167" stroke="white" stroke-linejoin="round"/>
</svg>
