<svg width="16" height="17" viewBox="0 0 16 17" fill="none" xmlns="http://www.w3.org/2000/svg">
<path d="M1.33398 15.167L14.6673 15.167" stroke="white" stroke-linecap="round"/>
<path d="M12.0007 6.5H9.33398C7.67932 6.5 7.33398 6.84533 7.33398 8.5V15.1667H14.0007V8.5C14.0007 6.84533 13.6553 6.5 12.0007 6.5Z" stroke="white" stroke-linejoin="round"/>
<path d="M10 15.1668H2V3.8335C2 2.17883 2.34533 1.8335 4 1.8335H8C9.65467 1.8335 10 2.17883 10 3.8335V6.50016" stroke="white" stroke-linejoin="round"/>
<path d="M2 4.5H4M2 7.16667H4M2 9.83333H4" stroke="white" stroke-linecap="round"/>
<path d="M10 9.16699H11.3333M10 11.167H11.3333" stroke="white" stroke-linecap="round"/>
<path d="M10.668 15.167L10.668 13.167" stroke="white" stroke-linecap="round" stroke-linejoin="round"/>
</svg>
