<svg width="16" height="17" viewBox="0 0 16 17" fill="none" xmlns="http://www.w3.org/2000/svg">
<path d="M1.33398 4.5L5.94267 7.11131C7.64172 8.07401 8.35959 8.07401 10.0586 7.11131L14.6673 4.5" stroke="white" stroke-linejoin="round"/>
<path d="M1.34449 9.48391C1.38808 11.5276 1.40987 12.5494 2.16396 13.3064C2.91804 14.0634 3.96754 14.0897 6.06654 14.1425C7.36019 14.175 8.64111 14.175 9.93477 14.1425C12.0338 14.0897 13.0833 14.0634 13.8374 13.3064C14.5914 12.5494 14.6132 11.5276 14.6568 9.48391C14.6708 8.82679 14.6708 8.17355 14.6568 7.51643C14.6132 5.47274 14.5914 4.45089 13.8374 3.69394C13.0833 2.93698 12.0338 2.91061 9.93477 2.85788C8.64111 2.82537 7.36019 2.82537 6.06653 2.85787C3.96754 2.91061 2.91804 2.93697 2.16395 3.69393C1.40987 4.45088 1.38808 5.47273 1.34449 7.51642C1.33048 8.17354 1.33048 8.82679 1.34449 9.48391Z" stroke="white" stroke-linejoin="round"/>
</svg>
