<svg width="16" height="17" viewBox="0 0 16 17" fill="none" xmlns="http://www.w3.org/2000/svg">
<path d="M2.51907 8.46173C1.88705 7.3597 1.58188 6.45982 1.39788 5.54764C1.12573 4.19855 1.74852 2.8807 2.78024 2.03981C3.21628 1.68442 3.71614 1.80584 3.97399 2.26843L4.55611 3.31277C5.01751 4.14054 5.24821 4.55443 5.20245 4.99322C5.15669 5.43202 4.84556 5.7894 4.2233 6.50417L2.51907 8.46173ZM2.51907 8.46173C3.79832 10.6923 5.80588 12.701 8.03908 13.9817M8.03908 13.9817C9.14111 14.6138 10.041 14.9189 10.9532 15.1029C12.3023 15.3751 13.6201 14.7523 14.461 13.7206C14.8164 13.2845 14.695 12.7847 14.2324 12.5268L13.188 11.9447C12.3603 11.4833 11.9464 11.2526 11.5076 11.2984C11.0688 11.3441 10.7114 11.6553 9.99665 12.2775L8.03908 13.9817Z" stroke="white" stroke-linejoin="round"/>
</svg>
