<svg width="53" height="53" viewBox="0 0 53 53" fill="none" xmlns="http://www.w3.org/2000/svg">
<g clip-path="url(#clip0_1232_652)">
<path d="M52.4985 22.8665C52.31 29.9515 49.9938 35.5805 45.6106 39.5932C39.9621 44.7694 32.4308 45.7964 28.689 45.9697V50.3334C28.689 51.5315 27.7205 52.5 26.5223 52.5C25.3241 52.5 24.3556 51.5315 24.3556 50.3334V45.9697C20.616 45.7964 13.0868 44.7694 7.43614 39.5932C3.05731 35.5784 0.738974 29.9515 0.550474 22.8665C0.513641 21.4604 1.09647 20.0997 2.14731 19.1355C3.20897 18.1627 4.63247 17.6969 6.05381 17.8659C18.3085 19.2829 23.9396 27.475 26.5223 34.2654C29.105 27.475 34.7383 19.2807 46.993 17.8659C48.41 17.7034 49.8335 18.1627 50.8951 19.1334C51.9481 20.0975 52.5353 21.4582 52.4985 22.8665ZM20.4231 10.7224L24.3318 6.96319V20C24.3318 21.196 25.3003 22.1667 26.4985 22.1667C27.6966 22.1667 28.6651 21.196 28.6651 20V6.93502L32.5738 10.7224C32.9941 11.1297 33.538 11.3334 34.0818 11.3334C34.6473 11.3334 35.2106 11.1124 35.6375 10.6747C36.4716 9.81669 36.45 8.44519 35.592 7.61102L29.5621 1.76969C27.8721 0.0818523 25.1226 0.0796855 23.4586 1.74585L17.4071 7.61102C16.5491 8.44519 16.5275 9.81669 17.3616 10.6747C18.198 11.5349 19.5651 11.5522 20.4231 10.7224Z" fill="#F9FAFB"/>
</g>
<defs>
<clipPath id="clip0_1232_652">
<rect width="52" height="52" fill="white" transform="translate(0.5 0.5)"/>
</clipPath>
</defs>
</svg>
