<svg width="53" height="53" viewBox="0 0 53 53" fill="none" xmlns="http://www.w3.org/2000/svg">
<g clip-path="url(#clip0_1232_619)">
<path d="M24.3333 37.3333V45.883C24.3333 48.847 22.3487 51.512 19.4627 52.188C18.5917 52.3917 17.6838 52.5 16.75 52.5C11.5023 52.5 6.9675 49.1287 5.41183 44.1908C2.36117 42.1953 0.5 38.8197 0.5 35.1667C0.5 33.247 1.00917 31.4032 1.98633 29.75C1.01133 28.0968 0.5 26.253 0.5 24.3333C0.5 20.936 2.12933 17.7467 4.83333 15.7122V15.6667C4.83333 11.5565 7.7085 8.10717 11.5543 7.221C12.4405 3.37733 15.892 0.5 20 0.5H20.0477C22.4158 0.5065 24.3333 2.4305 24.3333 4.79867V17.8333H19.3998C18.6502 16.5442 17.2678 15.6667 15.6667 15.6667C13.2725 15.6667 11.3333 17.6058 11.3333 20C11.3333 22.3942 13.2725 24.3333 15.6667 24.3333C17.2657 24.3333 18.648 23.4558 19.3998 22.1667H24.3333V33H19.3998C18.6502 31.7108 17.2678 30.8333 15.6667 30.8333C13.2725 30.8333 11.3333 32.7725 11.3333 35.1667C11.3333 37.5608 13.2725 39.5 15.6667 39.5C17.2657 39.5 18.648 38.6225 19.3998 37.3333H24.3333ZM52.5 24.3333C52.5 20.936 50.8707 17.7467 48.1667 15.7122V15.6667C48.1667 11.5565 45.2915 8.10717 41.4457 7.221C40.5595 3.37733 37.108 0.5 33 0.5H32.9523C30.5842 0.5065 28.6667 2.42833 28.6667 4.7965V26.5H33C35.1667 26.5 35.1667 24.3333 35.1667 24.3333V23.7332C33.5915 22.8167 32.6338 20.9598 33.1343 18.9145C33.5157 17.3545 34.8265 16.0957 36.3973 15.7663C39.201 15.1792 41.6688 17.3025 41.6688 20.0022C41.6688 21.6012 40.7913 22.9835 39.5022 23.7353V24.3355C39.5022 27.9257 36.5923 30.8355 33.0022 30.8355H28.6688V45.8852C28.6688 48.8492 30.6535 51.5142 33.5373 52.1902C34.4083 52.3938 35.3183 52.5022 36.2522 52.5022C41.4998 52.5022 46.0347 49.1308 47.5903 44.193C50.641 42.1975 52.5022 38.8218 52.5022 35.1688C52.5022 33.2492 51.993 31.4053 51.0158 29.7522C51.9908 28.099 52.5022 26.2552 52.5022 24.3355L52.5 24.3333Z" fill="#F9FAFB"/>
</g>
<defs>
<clipPath id="clip0_1232_619">
<rect width="52" height="52" fill="white" transform="translate(0.5 0.5)"/>
</clipPath>
</defs>
</svg>
