<svg width="52" height="53" viewBox="0 0 52 53" fill="none" xmlns="http://www.w3.org/2000/svg">
<g clip-path="url(#clip0_1232_613)">
<path d="M17.3347 52.5C12.1108 52.5 7.99417 49.7158 5.65851 44.6328C2.23734 42.9472 0.00133855 39.422 0.00133855 35.5783C0.00133855 33.6262 0.560338 31.7455 1.60684 30.127C0.480172 28.3807 -0.111328 26.4003 -0.111328 24.3333C-0.111328 21.9825 0.709839 18.7563 4.42784 16.2148V15.1488C4.42784 11.2033 7.27484 8.196 11.4327 7.4745C12.2387 3.43583 15.4453 0.5 19.3908 0.5C23.7523 0.5 28.168 3.477 28.168 9.16667V41.6667C28.168 47.235 22.903 52.5 17.3347 52.5ZM30.8785 48.1147C31.0432 48.1298 31.2013 48.1667 31.3703 48.1667H37.9158C40.908 48.1667 43.3325 45.7422 43.3325 42.75V41.6667H32.4992C32.4992 43.9265 31.899 46.1192 30.8763 48.1147H30.8785ZM46.8208 9.808C43.482 6.52333 39.0598 4.764 34.3733 4.8355C33.5348 4.8485 32.7115 4.94167 31.9012 5.076C32.2803 6.31967 32.5013 7.67817 32.5013 9.16667V20C32.5013 21.196 33.472 22.1667 34.668 22.1667C35.864 22.1667 36.8347 21.196 36.8347 20C36.8347 18.804 37.8032 17.8333 39.0013 17.8333C40.1995 17.8333 41.168 18.8018 41.168 20C41.168 22.821 39.3502 25.2043 36.8347 26.1013V37.3333H44.3487C44.8427 36.4862 45.4797 35.6867 46.3138 34.9912C47.7417 33.7995 49.085 32.4713 49.9105 30.8052C53.674 23.1937 52.1812 15.0773 46.8208 9.808Z" fill="#F9FAFB"/>
</g>
<defs>
<clipPath id="clip0_1232_613">
<rect width="52" height="52" fill="white" transform="translate(0 0.5)"/>
</clipPath>
</defs>
</svg>
