<svg width="40" height="40" viewBox="0 0 40 40" fill="none" xmlns="http://www.w3.org/2000/svg">
<rect width="40" height="40" rx="20" fill="#D6CBE3"/>
<g clip-path="url(#clip0_368_2919)">
<path d="M19.9991 10.035C17.7941 10.0374 15.68 10.9144 14.1208 12.4735C12.5615 14.0326 11.6843 16.1466 11.6816 18.3516C11.6816 20.4933 13.34 23.845 16.6108 28.3133C17.0002 28.8467 17.51 29.2807 18.0988 29.5799C18.6876 29.8791 19.3387 30.035 19.9991 30.035C20.6596 30.035 21.3107 29.8791 21.8995 29.5799C22.4883 29.2807 22.9981 28.8467 23.3875 28.3133C26.6583 23.845 28.3166 20.4933 28.3166 18.3516C28.314 16.1466 27.4368 14.0326 25.8775 12.4735C24.3182 10.9144 22.2042 10.0374 19.9991 10.035ZM19.9991 21.6666C19.3399 21.6666 18.6954 21.4711 18.1472 21.1049C17.5991 20.7386 17.1718 20.218 16.9195 19.6089C16.6673 18.9998 16.6012 18.3296 16.7299 17.683C16.8585 17.0364 17.1759 16.4425 17.6421 15.9763C18.1083 15.5101 18.7022 15.1926 19.3488 15.064C19.9954 14.9354 20.6657 15.0014 21.2748 15.2537C21.8838 15.506 22.4044 15.9332 22.7707 16.4814C23.137 17.0296 23.3325 17.674 23.3325 18.3333C23.3325 19.2174 22.9813 20.0652 22.3562 20.6903C21.731 21.3155 20.8832 21.6666 19.9991 21.6666Z" fill="url(#paint0_linear_368_2919)"/>
</g>
<defs>
<linearGradient id="paint0_linear_368_2919" x1="12.9641" y1="3.42798" x2="40.897" y2="16.6654" gradientUnits="userSpaceOnUse">
<stop stop-color="#13405B"/>
<stop offset="0.65" stop-color="#784791"/>
<stop offset="1" stop-color="#DD9C36"/>
</linearGradient>
<clipPath id="clip0_368_2919">
<rect width="20" height="20" fill="white" transform="translate(10 10)"/>
</clipPath>
</defs>
</svg>
