<svg width="40" height="41" viewBox="0 0 40 41" fill="none" xmlns="http://www.w3.org/2000/svg">
<rect y="0.5" width="40" height="40" rx="20" fill="#D6CBE3"/>
<g clip-path="url(#clip0_368_2911)">
<path d="M29.1669 19.1667C28.9459 19.1667 28.7339 19.0789 28.5777 18.9226C28.4214 18.7663 28.3336 18.5543 28.3336 18.3333C28.3318 16.5658 27.6289 14.8711 26.379 13.6212C25.1291 12.3714 23.4345 11.6684 21.6669 11.6667C21.4459 11.6667 21.2339 11.5789 21.0777 11.4226C20.9214 11.2663 20.8336 11.0543 20.8336 10.8333C20.8336 10.6123 20.9214 10.4004 21.0777 10.2441C21.2339 10.0878 21.4459 10 21.6669 10C23.8763 10.0024 25.9945 10.8812 27.5568 12.4435C29.1191 14.0057 29.9978 16.1239 30.0002 18.3333C30.0002 18.5543 29.9124 18.7663 29.7562 18.9226C29.5999 19.0789 29.3879 19.1667 29.1669 19.1667ZM26.6669 18.3333C26.6669 17.0073 26.1401 15.7355 25.2024 14.7978C24.2648 13.8601 22.993 13.3333 21.6669 13.3333C21.4459 13.3333 21.2339 13.4211 21.0777 13.5774C20.9214 13.7337 20.8336 13.9457 20.8336 14.1667C20.8336 14.3877 20.9214 14.5996 21.0777 14.7559C21.2339 14.9122 21.4459 15 21.6669 15C22.551 15 23.3988 15.3512 24.0239 15.9763C24.6491 16.6014 25.0002 17.4493 25.0002 18.3333C25.0002 18.5543 25.088 18.7663 25.2443 18.9226C25.4006 19.0789 25.6126 19.1667 25.8336 19.1667C26.0546 19.1667 26.2666 19.0789 26.4228 18.9226C26.5791 18.7663 26.6669 18.5543 26.6669 18.3333ZM28.4861 28.47L29.2444 27.5958C29.7271 27.1116 29.9981 26.4558 29.9981 25.7721C29.9981 25.0884 29.7271 24.4326 29.2444 23.9483C29.2186 23.9225 27.2136 22.38 27.2136 22.38C26.7324 21.9219 26.0932 21.6669 25.4288 21.6678C24.7645 21.6687 24.126 21.9256 23.6461 22.385L22.0577 23.7233C20.7612 23.1867 19.5835 22.3993 18.5921 21.4063C17.6008 20.4132 16.8154 19.2341 16.2811 17.9367L17.6144 16.3533C18.0742 15.8735 18.3313 15.2349 18.3324 14.5703C18.3335 13.9058 18.0784 13.2664 17.6202 12.785C17.6202 12.785 16.0761 10.7825 16.0502 10.7567C15.5748 10.2781 14.9301 10.0059 14.2556 9.99868C13.5811 9.99151 12.9308 10.25 12.4452 10.7183L11.4869 11.5517C5.82525 18.12 18.0169 30.2175 24.8019 30C25.4871 30.004 26.1661 29.8706 26.7988 29.6079C27.4316 29.3451 28.0053 28.9582 28.4861 28.47Z" fill="url(#paint0_linear_368_2911)"/>
</g>
<defs>
<linearGradient id="paint0_linear_368_2911" x1="11.569" y1="3.39012" x2="42.596" y2="21.0387" gradientUnits="userSpaceOnUse">
<stop stop-color="#13405B"/>
<stop offset="0.65" stop-color="#784791"/>
<stop offset="1" stop-color="#DD9C36"/>
</linearGradient>
<clipPath id="clip0_368_2911">
<rect width="20" height="20" fill="white" transform="translate(10 10)"/>
</clipPath>
</defs>
</svg>
