<svg width="51" height="52" viewBox="0 0 51 52" fill="none" xmlns="http://www.w3.org/2000/svg">
<g clip-path="url(#clip0_1232_633)">
<path d="M50.2505 39.5595L42.8343 32.1433C42.9937 31.1042 42.9597 30.0672 42.728 29.045C44.8892 27.3238 46.8675 24.7823 46.7252 21.7669C46.7315 20.3517 46.3809 18.964 45.7094 17.7549C45.0613 16.3163 43.6907 15.4727 42.7302 14.4527C43.0447 13.0672 42.9979 11.6498 42.5942 10.243C41.8207 7.54854 39.6659 5.39804 36.9714 4.62879C35.5604 4.22504 34.143 4.18041 32.7639 4.49491C31.7333 3.54716 30.896 2.16591 29.4489 1.51779C26.9988 0.162039 23.9537 0.162039 21.5014 1.51779C20.0585 2.16591 19.2234 3.53866 18.1885 4.49279C16.8264 4.18466 15.3708 4.23141 13.9832 4.62666C11.2865 5.39591 9.13178 7.54854 8.35828 10.2409C7.95241 11.6519 7.90778 13.0693 8.22228 14.4527C6.06541 16.176 4.08278 18.7154 4.22516 21.7329C4.08491 24.7865 6.04628 27.3047 8.22228 29.0429C7.98641 30.0799 7.95241 31.136 8.12028 32.1922L0.750784 39.5595C0.340659 39.9718 0.0792842 40.5179 0.0155342 41.1002C-0.139591 42.5175 0.884659 43.7968 2.30203 43.9519L7.02166 44.4747L7.54228 49.1752C7.64216 50.1718 8.31578 51.0239 9.25503 51.349C10.1985 51.6869 11.2547 51.4425 11.9389 50.7413L21.0318 41.6484C22.2898 42.6025 23.9282 42.9829 25.4688 43.002C27.0222 42.9829 28.6775 42.5983 29.9398 41.6272L39.056 50.7434C39.7424 51.4447 40.7985 51.689 41.7399 51.3512C42.6792 51.0239 43.3549 50.1739 43.4527 49.1773L43.9733 44.4768L48.6929 43.954C50.1103 43.7968 51.1345 42.5197 50.9794 41.1023C50.9157 40.5222 50.6543 39.9739 50.2442 39.5617L50.2505 39.5595ZM26.3613 36.406C25.83 36.6993 25.1203 36.6993 24.5912 36.406C24.2639 36.2254 24.0068 35.9938 23.8304 35.7197C22.5724 33.771 20.4262 32.6299 18.2034 32.6299C17.3598 32.5704 16.5863 33.0018 15.732 32.7404C15.1519 32.5747 14.6504 32.0753 14.4847 31.4952C14.3805 31.1318 14.3657 30.7833 14.44 30.4582C15.052 27.7658 13.8705 24.9332 11.5012 23.4074C10.9678 23.0525 10.5832 22.4405 10.6002 21.7329C10.5832 21.0614 10.9805 20.4282 11.5012 20.0903C13.8705 18.5645 15.0499 15.7319 14.4379 13.0374C14.3635 12.7144 14.3805 12.3659 14.4847 12.0004C14.6504 11.4224 15.1519 10.923 15.7342 10.7552C16.1018 10.651 16.4482 10.634 16.7775 10.7084C19.4699 11.3162 22.3025 10.141 23.8283 7.78016C24.0068 7.50391 24.2639 7.27229 24.5869 7.09166C25.116 6.79629 25.8258 6.79629 26.357 7.09166C26.6843 7.27229 26.9414 7.50391 27.1178 7.77804C28.6435 10.141 31.4783 11.3204 34.1685 10.7084C34.4958 10.634 34.8464 10.651 35.2162 10.7552C35.7963 10.9209 36.2978 11.4203 36.4635 12.0004C36.5677 12.3638 36.5825 12.7123 36.5103 13.0353C35.8962 15.7277 37.0777 18.5624 39.447 20.0882C39.9804 20.443 40.365 21.055 40.348 21.7627C40.365 22.4342 39.9677 23.0674 39.447 23.4053C37.0777 24.931 35.8962 27.7658 36.5103 30.4539C36.5847 30.7812 36.5677 31.1297 36.4635 31.4952C36.2978 32.0732 35.7963 32.5747 35.2162 32.7383C34.8507 32.8424 34.4979 32.8594 34.1707 32.785C31.4783 32.1794 28.6457 33.3524 27.1199 35.7133C26.9414 35.9895 26.6843 36.2212 26.3613 36.4018V36.406ZM28.6712 28.1249H20.1903C18.4308 28.1249 17.0028 26.6969 17.0028 24.9374V20.6874C17.0028 18.9279 18.4308 17.4999 20.1903 17.4999H20.9893L24.4403 13.1522C24.776 12.4764 25.2818 12.1938 25.9384 12.1874C26.7119 12.1874 27.3473 12.6932 27.5598 13.4752C27.5853 13.5665 27.6172 13.7748 27.5513 14.1552L26.476 17.502H31.2403C32.7937 17.502 34.0432 18.7792 34.0092 20.3325C34.0049 20.5684 33.9688 20.8043 33.9029 21.0317L32.7575 25.0437C32.2369 26.869 30.5688 28.127 28.6712 28.127V28.1249Z" fill="#F9FAFB"/>
</g>
<defs>
<clipPath id="clip0_1232_633">
<rect width="51" height="51" fill="white" transform="translate(0 0.5)"/>
</clipPath>
</defs>
</svg>
