<svg width="50" height="50" viewBox="0 0 50 50" fill="none" xmlns="http://www.w3.org/2000/svg">
<g clip-path="url(#clip0_1232_601)">
<path d="M20.225 26.1455C18.1271 24.1996 14.6833 24.5871 13.1167 27.183C12.1 28.8705 12.3875 31.0475 13.6271 32.5767L17.3521 37.3767C18.0583 38.285 17.8938 39.5934 16.9833 40.2996C16.075 41.0059 14.7667 40.8413 14.0604 39.9309L10.3354 35.1309C7.99792 32.2496 7.65833 28.1621 9.54792 25.0309C9.80417 24.6059 10.1021 24.2163 10.4167 23.8475V11.6725C10.4167 8.94754 8.45625 6.46629 5.74583 6.19338C2.62917 5.88088 0 8.32046 0 11.3746V33.3475C0 37.7934 1.77708 42.0559 4.93542 45.1871L8.66875 48.885C9.43958 49.5996 10.45 49.9955 11.5021 49.9955H27.0833C28.2333 49.9955 29.1667 49.0621 29.1667 47.9121V39.9538C29.1667 36.5059 27.7417 33.21 25.2292 30.8475L20.225 26.1434V26.1455ZM44.2542 6.19754C41.5438 6.46838 39.5833 8.95171 39.5833 11.6767V23.8517C39.8979 24.2205 40.1937 24.608 40.4521 25.035C42.3396 28.1663 42.0021 32.2538 39.6646 35.135L33.3354 41.435V47.9184C33.3354 48.6517 33.1854 49.3475 32.9521 50.0017H38.5021C39.5521 50.0017 40.5646 49.6059 41.3354 48.8913L45.0646 45.1996C48.225 42.0705 50.0042 37.8059 50.0042 33.3559V11.3788C50.0042 8.32463 47.3771 5.88504 44.2583 6.19754H44.2542ZM36.8833 27.185C35.3167 24.5892 31.8729 24.2017 29.775 26.1475L28.0417 27.7767L28.0833 27.8163C30.4604 30.0517 32.0854 32.9496 32.8396 36.083L36.3708 32.5788C37.6104 31.0496 37.8979 28.8705 36.8812 27.185H36.8833ZM35.4229 5.73088C35.4229 10.2371 29.5479 15.8371 26.6208 18.185C25.6771 18.9413 24.3354 18.9413 23.3917 18.185C20.4646 15.835 14.5896 10.2371 14.5896 5.73088C14.4521 2.71213 16.7812 0.151709 19.7979 0.00170898C22.8146 0.151709 25.1437 2.71213 25.0063 5.73088C24.8687 2.71213 27.1979 0.151709 30.2146 0.00170898C33.2313 0.151709 35.5604 2.71213 35.4229 5.73088Z" fill="#F9FAFB"/>
</g>
<defs>
<clipPath id="clip0_1232_601">
<rect width="50" height="50" fill="white"/>
</clipPath>
</defs>
</svg>
