<svg width="40" height="40" viewBox="0 0 40 40" fill="none" xmlns="http://www.w3.org/2000/svg">
<g clip-path="url(#clip0_368_5542)">
<path d="M18.334 29.1667C18.3361 27.0441 18.9617 24.9688 20.1331 23.1987C21.3045 21.4286 22.9701 20.0416 24.923 19.21C26.876 18.3784 29.0302 18.1389 31.1181 18.5211C33.206 18.9033 35.1356 19.8905 36.6673 21.36V5C36.6673 3.67392 36.1405 2.40215 35.2029 1.46447C34.2652 0.526784 32.9934 0 31.6673 0L11.6673 0C9.45799 0.00264643 7.33991 0.88147 5.77768 2.4437C4.21545 4.00593 3.33663 6.12401 3.33398 8.33333V31.6667C3.33663 33.876 4.21545 35.9941 5.77768 37.5563C7.33991 39.1185 9.45799 39.9974 11.6673 40H29.1673C26.2941 40 23.5386 38.8586 21.507 36.827C19.4754 34.7953 18.334 32.0398 18.334 29.1667ZM11.6673 11.6667C11.6673 11.2246 11.8429 10.8007 12.1555 10.4882C12.468 10.1756 12.892 10 13.334 10H26.6673C27.1093 10 27.5333 10.1756 27.8458 10.4882C28.1584 10.8007 28.334 11.2246 28.334 11.6667C28.334 12.1087 28.1584 12.5326 27.8458 12.8452C27.5333 13.1577 27.1093 13.3333 26.6673 13.3333H13.334C12.892 13.3333 12.468 13.1577 12.1555 12.8452C11.8429 12.5326 11.6673 12.1087 11.6673 11.6667ZM39.5123 39.5117C39.1998 39.8241 38.7759 39.9996 38.334 39.9996C37.892 39.9996 37.4682 39.8241 37.1557 39.5117L33.144 35.5C31.9559 36.2583 30.5767 36.6629 29.1673 36.6667C27.684 36.6667 26.2339 36.2268 25.0005 35.4027C23.7672 34.5786 22.8059 33.4072 22.2382 32.0368C21.6706 30.6663 21.522 29.1583 21.8114 27.7035C22.1008 26.2486 22.8151 24.9123 23.864 23.8634C24.9129 22.8145 26.2493 22.1002 27.7041 21.8108C29.159 21.5214 30.667 21.6699 32.0374 22.2376C33.4079 22.8052 34.5792 23.7665 35.4033 24.9999C36.2275 26.2333 36.6673 27.6833 36.6673 29.1667C36.6636 30.5761 36.2589 31.9553 35.5007 33.1433L39.5123 37.155C39.8248 37.4675 40.0003 37.8914 40.0003 38.3333C40.0003 38.7753 39.8248 39.1991 39.5123 39.5117Z" fill="url(#paint0_linear_368_5542)"/>
</g>
<defs>
<linearGradient id="paint0_linear_368_5542" x1="6.16082" y1="-13.214" x2="65.3983" y2="17.7245" gradientUnits="userSpaceOnUse">
<stop stop-color="#13405B"/>
<stop offset="0.65" stop-color="#784791"/>
<stop offset="1" stop-color="#DD9C36"/>
</linearGradient>
<clipPath id="clip0_368_5542">
<rect width="40" height="40" fill="white"/>
</clipPath>
</defs>
</svg>
