<svg width="51" height="51" viewBox="0 0 51 51" fill="none" xmlns="http://www.w3.org/2000/svg">
<g clip-path="url(#clip0_1232_607)">
<path d="M39.2117 4.95884L26.1596 0.606752C25.7323 0.464416 25.2703 0.464416 24.843 0.606752L11.7909 4.95884C9.71569 5.64817 7.9105 6.97395 6.63181 8.74782C5.35312 10.5217 4.66597 12.6534 4.66797 14.8401V25.5005C4.66797 41.2568 23.8346 49.9588 24.6555 50.3213C24.9218 50.4396 25.2099 50.5008 25.5013 50.5008C25.7927 50.5008 26.0808 50.4396 26.3471 50.3213C27.168 49.9588 46.3346 41.2568 46.3346 25.5005V14.8401C46.3366 12.6534 45.6495 10.5217 44.3708 8.74782C43.0921 6.97395 41.2869 5.64817 39.2117 4.95884ZM35.3305 20.7443L26.4305 29.6443C26.0663 30.0109 25.6329 30.3015 25.1554 30.4993C24.678 30.6971 24.166 30.798 23.6492 30.7963H23.5805C23.0532 30.7883 22.533 30.6733 22.0513 30.4585C21.5697 30.2436 21.1367 29.9333 20.7784 29.5463L15.9742 24.5463C15.7662 24.3533 15.5997 24.1198 15.4852 23.8601C15.3706 23.6005 15.3103 23.3201 15.3079 23.0363C15.3056 22.7525 15.3613 22.4712 15.4715 22.2097C15.5818 21.9482 15.7443 21.7119 15.9492 21.5155C16.154 21.319 16.3968 21.1665 16.6627 21.0673C16.9286 20.968 17.212 20.9242 17.4954 20.9384C17.7789 20.9526 18.0565 21.0245 18.3111 21.1499C18.5658 21.2752 18.7921 21.4512 18.9763 21.6672L23.6513 26.5422L32.3763 17.7922C32.7692 17.4127 33.2955 17.2027 33.8417 17.2074C34.388 17.2122 34.9105 17.4313 35.2968 17.8175C35.683 18.2038 35.9021 18.7263 35.9069 19.2726C35.9116 19.8188 35.7016 20.3451 35.3221 20.738L35.3305 20.7443Z" fill="#F9FAFB"/>
</g>
<defs>
<clipPath id="clip0_1232_607">
<rect width="50" height="50" fill="white" transform="translate(0.5 0.5)"/>
</clipPath>
</defs>
</svg>
