<svg width="40" height="40" viewBox="0 0 40 40" fill="none" xmlns="http://www.w3.org/2000/svg">
<g clip-path="url(#clip0_368_5556)">
<path d="M7.63074 8.17006C7.35407 7.3084 7.51907 6.37006 8.07074 5.66006C9.70074 3.55173 14.1657 -0.0166016 20.5407 -0.0166016C24.6324 -0.0166016 27.9607 3.2184 28.2724 7.30007C25.5307 5.99173 22.6457 5.83173 19.9991 5.83173C19.0774 5.83173 18.3324 6.5784 18.3324 7.4984C18.3324 8.4184 19.0774 9.16507 19.9991 9.16507C22.7274 9.16507 25.3774 9.34507 27.7641 10.8451C26.6124 13.7617 23.8157 15.8317 20.5424 15.8317C17.7624 15.8317 15.4124 14.0034 13.3374 12.3917C11.9491 11.3134 10.6374 10.2951 9.41407 9.9284C8.56907 9.67507 7.90407 9.0184 7.6324 8.1684L7.63074 8.17006ZM27.7624 10.8467C28.6707 11.4184 29.5441 12.1634 30.3624 13.1884C30.6924 13.6001 31.1757 13.8134 31.6657 13.8134C32.0307 13.8134 32.3974 13.6934 32.7057 13.4484C33.4241 12.8734 33.5407 11.8251 32.9657 11.1067C31.5057 9.2834 29.9141 8.08673 28.2691 7.30173C28.2841 7.50507 28.3291 7.70173 28.3291 7.91007C28.3291 8.95006 28.1191 9.9384 27.7607 10.8484L27.7624 10.8467ZM38.1741 19.8917C37.7907 19.0767 37.0341 18.5067 36.1507 18.3667C35.2391 18.2267 34.3024 18.5467 33.6574 19.2351C32.7307 20.2217 31.4557 21.1084 30.1041 22.0451C27.9224 23.5584 25.6691 25.1234 24.3457 27.4617C23.3124 29.2901 23.0574 31.4084 23.6274 33.4267C23.8757 34.3067 24.2924 35.1034 24.8091 35.8267C27.8191 34.5334 29.5674 32.0867 30.2407 29.8601C30.5074 28.9784 31.4324 28.4801 32.3174 28.7467C33.1991 29.0134 33.6974 29.9434 33.4307 30.8234C32.6241 33.4917 30.6707 36.3684 27.4624 38.1984C28.6657 38.8501 29.9641 39.1634 31.2491 39.1634C34.0307 39.1634 36.7341 37.7151 38.1857 35.1484C41.2707 29.6984 39.6274 22.9951 38.1724 19.8917H38.1741ZM24.8091 35.8267C23.8357 36.2451 22.7357 36.5467 21.4924 36.6751C20.5757 36.7701 19.9124 37.5901 20.0074 38.5051C20.0957 39.3617 20.8191 39.9984 21.6624 39.9984C21.7191 39.9984 21.7774 39.9951 21.8357 39.9901C24.0424 39.7601 25.8907 39.0951 27.4607 38.1984C27.4407 38.1884 27.4207 38.1801 27.4007 38.1701C26.3457 37.5867 25.4841 36.7751 24.8091 35.8267ZM15.7724 32.1801C15.6607 33.2467 15.5557 34.2534 15.5691 35.2301C15.5741 35.6567 15.6324 36.0901 15.7424 36.5234C15.9857 37.4617 15.7391 38.4467 15.0824 39.1484C14.5674 39.6984 13.8607 39.9984 13.1224 39.9984C12.9524 39.9984 12.7824 39.9834 12.6107 39.9501C10.5641 39.5617 3.65907 37.7951 0.740737 31.3634C-0.909263 27.7284 0.38907 23.4951 3.5924 21.3534C3.53907 21.7551 3.48574 22.1551 3.48574 22.5351C3.46574 22.8534 3.39574 25.7534 7.15407 29.5101C7.47907 29.8351 7.90574 29.9984 8.3324 29.9984C8.75907 29.9984 9.18574 29.8351 9.51074 29.5101C10.1624 28.8584 10.1624 27.8051 9.51074 27.1534C6.86407 24.5084 6.81407 22.7051 6.81574 22.6401C6.81574 21.8534 7.00574 20.9734 7.34907 20.0401C8.4624 19.9551 9.5874 20.0867 10.6657 20.4851C12.6674 21.2251 14.2607 22.7101 15.1491 24.6701C16.2941 27.1867 16.0274 29.7234 15.7724 32.1767V32.1801ZM7.34907 20.0401C7.6424 19.2401 8.04407 18.4034 8.57574 17.5367C9.0574 16.7517 8.81074 15.7267 8.02574 15.2451C7.23907 14.7617 6.21407 15.0101 5.73407 15.7951C4.52407 17.7684 3.8224 19.6451 3.5924 21.3534C3.9224 21.1334 4.2524 20.9117 4.6224 20.7384C5.49574 20.3317 6.4174 20.1117 7.34907 20.0401Z" fill="url(#paint0_linear_368_5556)"/>
</g>
<defs>
<linearGradient id="paint0_linear_368_5556" x1="3.10047" y1="-13.2355" x2="65.1351" y2="22.0182" gradientUnits="userSpaceOnUse">
<stop stop-color="#13405B"/>
<stop offset="0.65" stop-color="#784791"/>
<stop offset="1" stop-color="#DD9C36"/>
</linearGradient>
<clipPath id="clip0_368_5556">
<rect width="40" height="40" fill="white"/>
</clipPath>
</defs>
</svg>
