<svg width="40" height="40" viewBox="0 0 40 40" fill="none" xmlns="http://www.w3.org/2000/svg">
<path d="M36.6657 13.3333H26.6657V10H33.3324V6.205C32.3407 5.62833 31.6657 4.565 31.6657 3.33333C31.6657 1.49167 33.1574 0 34.9991 0C36.8407 0 38.3324 1.49167 38.3324 3.33333C38.3324 4.56333 37.6574 5.62667 36.6657 6.205V13.3333ZM36.6657 33.795V26.6667H21.6657V30H33.3324V33.795C32.3407 34.3717 31.6657 35.435 31.6657 36.6667C31.6657 38.5083 33.1574 40 34.9991 40C36.8407 40 38.3324 38.5083 38.3324 36.6667C38.3324 35.4367 37.6574 34.3733 36.6657 33.795ZM34.9991 16.6667C33.7691 16.6667 32.7057 17.3417 32.1274 18.3333H24.5007C23.7257 19.57 22.7724 20.6817 21.6641 21.6233V21.6667H32.1257C32.7024 22.6583 33.7657 23.3333 34.9974 23.3333C36.8391 23.3333 38.3307 21.8417 38.3307 20C38.3307 18.1583 36.8407 16.6667 34.9991 16.6667ZM23.3324 10.8333C23.3324 14.565 21.4407 17.9733 18.3324 19.955V33.5567C18.3324 34.7717 17.8407 35.9617 16.9807 36.82L14.7191 39.08C14.1074 39.6917 13.3024 39.9983 12.4991 39.9983C11.6957 39.9983 10.8924 39.6917 10.2791 39.0817L8.01573 36.8183C7.1574 35.96 6.66406 34.77 6.66406 33.5567V30.1433L9.09906 27.7083L5.97406 24.5833L9.09906 21.4583L8.5574 20.9167C4.41906 19.2983 1.66406 15.2967 1.66406 10.8333C1.66573 4.86 6.52573 0 12.4991 0C18.4724 0 23.3324 4.86 23.3324 10.8333ZM14.9991 7.5C14.9991 6.12 13.8791 5 12.4991 5C11.1191 5 9.99906 6.12 9.99906 7.5C9.99906 8.88 11.1191 10 12.4991 10C13.8791 10 14.9991 8.88 14.9991 7.5Z" fill="url(#paint0_linear_368_5549)"/>
<defs>
<linearGradient id="paint0_linear_368_5549" x1="4.49105" y1="-13.214" x2="63.7304" y2="17.7272" gradientUnits="userSpaceOnUse">
<stop stop-color="#13405B"/>
<stop offset="0.65" stop-color="#784791"/>
<stop offset="1" stop-color="#DD9C36"/>
</linearGradient>
</defs>
</svg>
