<svg width="40" height="40" viewBox="0 0 40 40" fill="none" xmlns="http://www.w3.org/2000/svg">
<g clip-path="url(#clip0_367_7092)">
<path d="M20 11.6667V0.766667C21.5217 1.34333 22.9217 2.23167 24.1083 3.41667L29.915 9.22667C31.1017 10.4117 31.99 11.8117 32.5667 13.3333H21.6667C20.7467 13.3333 20 12.585 20 11.6667ZM14.3067 31.6667H8.33333C7.41333 31.6667 6.66667 30.92 6.66667 30C6.66667 29.08 7.41333 28.3333 8.33333 28.3333H13.45C13.3817 27.7867 13.3333 27.2333 13.3333 26.6667C13.3333 26.1 13.37 25.5467 13.4383 25H8.33333C7.41333 25 6.66667 24.2533 6.66667 23.3333C6.66667 22.4133 7.41333 21.6667 8.33333 21.6667H14.3217C14.815 20.4533 15.4867 19.3367 16.2967 18.3333H8.33333C7.41333 18.3333 6.66667 17.5867 6.66667 16.6667C6.66667 15.7467 7.41333 15 8.33333 15H17.9567C17.1583 14.115 16.6667 12.95 16.6667 11.6667V0.04C16.3983 0.0216667 16.13 0 15.8583 0H8.33333C3.73833 0 0 3.73833 0 8.33333V31.6667C0 36.2617 3.73833 40 8.33333 40H25C25.19 40 25.3683 39.9567 25.555 39.9433C20.445 39.52 16.1533 36.22 14.3067 31.6667ZM34.8517 32.495C36.4167 30.2967 37.1267 27.4483 36.4517 24.4233C35.6283 20.7383 32.6567 17.7633 28.9683 16.955C21.6933 15.3617 15.3633 21.6933 16.955 28.9683C17.7633 32.6567 20.7383 35.6283 24.4233 36.4517C27.45 37.1283 30.2983 36.4167 32.495 34.8517L37.155 39.5117C37.805 40.1617 38.8617 40.1617 39.5117 39.5117C40.1617 38.8617 40.1617 37.805 39.5117 37.155L34.8517 32.495ZM27.96 30.7733L27.9533 30.78C26.7133 32.02 24.5233 32.0233 23.2483 30.7483L20.7233 28.1233C20.1033 27.4783 20.1033 26.4583 20.7233 25.8133C21.3783 25.1317 22.4683 25.1317 23.1233 25.8133L25.615 28.4017L30.4483 23.45C31.1017 22.78 32.1783 22.78 32.8317 23.45C33.465 24.0967 33.465 25.1317 32.8317 25.7783L27.9567 30.7733H27.96Z" fill="url(#paint0_linear_367_7092)"/>
</g>
<defs>
<linearGradient id="paint0_linear_367_7092" x1="3.08379" y1="-13.214" x2="65.1766" y2="22.1636" gradientUnits="userSpaceOnUse">
<stop stop-color="#13405B"/>
<stop offset="0.65" stop-color="#784791"/>
<stop offset="1" stop-color="#DD9C36"/>
</linearGradient>
<clipPath id="clip0_367_7092">
<rect width="40" height="40" fill="white"/>
</clipPath>
</defs>
</svg>
