<svg width="52" height="53" viewBox="0 0 52 53" fill="none" xmlns="http://www.w3.org/2000/svg">
<g clip-path="url(#clip0_1232_625)">
<path d="M17.4157 11.7358V6.32779C17.4157 4.46013 18.6117 2.80263 20.3862 2.21546L25.0618 0.664125C25.7248 0.445292 26.4398 0.445292 27.1028 0.664125L31.7785 2.21546C33.5508 2.80263 34.749 4.46013 34.749 6.32779V11.7358C34.749 16.691 30.9032 19.9713 28.1905 21.6136C26.9317 22.3763 25.3543 22.3568 24.1323 21.5356C21.411 19.7091 17.4157 16.184 17.4157 11.7358ZM49.8333 24.3328H42.3995C40.7918 24.3328 39.2015 24.0425 37.7065 23.4531C36.7553 23.0783 35.6438 22.7186 34.5865 22.4716C32.1382 24.8528 29.3302 26.1745 28.0215 26.701C26.3748 27.3965 24.6415 27.0086 24.6415 27.0086L20.241 31.3203C19.4372 32.1263 19.2552 33.4155 19.8488 34.2388C20.2388 34.7805 20.8043 35.1055 21.45 35.1596C22.0892 35.2138 22.7088 34.982 23.1573 34.5313L28.1602 29.8903L43.7342 43.835H49.8312C51.0272 43.835 51.9978 42.8643 51.9978 41.6683V26.5016C51.9978 25.3056 51.0272 24.335 49.8312 24.335L49.8333 24.3328ZM26.156 37.6578C24.9968 38.8235 23.3567 39.4995 21.6407 39.4995C19.7535 39.3456 17.4568 38.3338 16.3302 36.7651C14.5037 34.2366 14.8612 30.575 17.173 28.2588L20.735 24.7813C19.7925 24.1378 18.7698 23.3405 17.7797 22.3936C16.7375 22.6255 15.626 22.9981 14.6445 23.3903C13.0997 24.0078 11.4595 24.3306 9.7955 24.3306H2.16667C0.970667 24.3306 0 25.3013 0 26.4973V41.664C0 42.86 0.970667 43.8306 2.16667 43.8306H9.0025C10.9352 43.8306 12.8115 44.4763 14.3347 45.6658L20.7913 50.7055C22.2798 51.8668 24.1128 52.4973 26 52.4973C27.8872 52.4973 29.7202 51.8668 31.2087 50.7055L38.5342 44.9876L28.1818 35.7165L26.156 37.6578Z" fill="#F9FAFB"/>
</g>
<defs>
<clipPath id="clip0_1232_625">
<rect width="52" height="52" fill="white" transform="translate(0 0.5)"/>
</clipPath>
</defs>
</svg>
