<svg width="1480" height="2708" viewBox="0 0 1480 2708" xmlns="http://www.w3.org/2000/svg">
  <defs>
    <!-- Mobile container gradient -->
    <linearGradient id="mobileContainerGradient" x1="0%" y1="0%" x2="100%" y2="100%">
      <stop offset="0%" style="stop-color:#f8fafc;stop-opacity:1" />
      <stop offset="30%" style="stop-color:#e2e8f0;stop-opacity:1" />
      <stop offset="60%" style="stop-color:#cbd5e0;stop-opacity:1" />
      <stop offset="100%" style="stop-color:#a0aec0;stop-opacity:1" />
    </linearGradient>
    
    <!-- Mobile highlight -->
    <linearGradient id="mobileHighlight" x1="0%" y1="0%" x2="100%" y2="0%">
      <stop offset="0%" style="stop-color:#ffffff;stop-opacity:0.6" />
      <stop offset="50%" style="stop-color:#f8fafc;stop-opacity:0.3" />
      <stop offset="100%" style="stop-color:#e2e8f0;stop-opacity:0.5" />
    </linearGradient>
    
    <!-- Mobile texture -->
    <pattern id="mobileTexture" x="0" y="0" width="100" height="100" patternUnits="userSpaceOnUse">
      <rect width="100" height="100" fill="#f8fafc" opacity="0.3"/>
      <line x1="0" y1="25" x2="100" y2="25" stroke="#e2e8f0" stroke-width="0.3" opacity="0.4"/>
      <line x1="0" y1="50" x2="100" y2="50" stroke="#e2e8f0" stroke-width="0.3" opacity="0.4"/>
      <line x1="0" y1="75" x2="100" y2="75" stroke="#e2e8f0" stroke-width="0.3" opacity="0.4"/>
    </pattern>
  </defs>
  
  <!-- Main mobile container background -->
  <rect width="100%" height="100%" fill="url(#mobileContainerGradient)"/>
  
  <!-- Mobile texture -->
  <rect width="100%" height="100%" fill="url(#mobileTexture)"/>
  
  <!-- Mobile container shape -->
  <polygon points="0,100 200,300 200,2408 0,2608" fill="url(#mobileHighlight)"/>
  <polygon points="1480,100 1280,300 1280,2408 1480,2608" fill="#cbd5e0" opacity="0.4"/>
  
  <!-- Top and bottom edges -->
  <rect x="0" y="0" width="100%" height="30" fill="#ffffff" opacity="0.5"/>
  <rect x="0" y="2678" width="100%" height="30" fill="#a0aec0" opacity="0.5"/>
  
  <!-- Mobile container outline -->
  <rect x="150" y="200" width="1180" height="2308" fill="none" stroke="#cbd5e0" stroke-width="1.5" opacity="0.3"/>
</svg>
